<svg xmlns="http://www.w3.org/2000/svg" xmlns:xlink="http://www.w3.org/1999/xlink" version="1.1" x="0px" y="0px" viewBox="0 0 100 125" enable-background="new 0 0 100 100" xml:space="preserve"><g><path d="M43.427,57.084c0-2.525-1.424-4.505-3.24-4.505c-1.817,0-3.241,1.979-3.241,4.505c0,2.527,1.423,4.506,3.241,4.506   C42.003,61.59,43.427,59.611,43.427,57.084"/><path d="M59.098,52.579c-1.817,0-3.24,1.979-3.24,4.505c0,2.527,1.423,4.506,3.24,4.506c1.816,0,3.24-1.979,3.24-4.506   C62.338,54.559,60.914,52.579,59.098,52.579"/><path d="M47.148,66.24c0.424,0,0.824-0.166,1.124-0.467c0.365-0.365,0.852-0.566,1.37-0.566s1.004,0.201,1.371,0.566   c0.3,0.301,0.699,0.467,1.124,0.467c0.426,0,0.824-0.166,1.124-0.467c0.301-0.3,0.466-0.699,0.466-1.124s-0.165-0.824-0.465-1.124   c-0.966-0.966-2.251-1.498-3.62-1.498s-2.654,0.532-3.619,1.498c-0.3,0.3-0.465,0.699-0.465,1.124s0.165,0.824,0.465,1.124   C46.324,66.074,46.723,66.24,47.148,66.24"/><path d="M50.338,72.407c0.58,0,1.164,0.222,1.787,0.676l0.206,0.151c0.343,0.25,1.276,0.891,2.065,1.432l-0.012,0.012   c-1.191,1.166-2.77,1.808-4.442,1.808c-1.544,0-3.004-0.545-4.157-1.544c0.369-0.247,0.729-0.52,1.115-0.813   C47.965,73.322,49.172,72.407,50.338,72.407 M58.389,72.609c-0.337,0-0.674,0.084-0.973,0.24c-0.025,0.014-0.039,0.019-0.04,0.02   c-0.456-0.002-2.085-1.191-3.274-2.06l-0.207-0.151c-1.139-0.832-2.336-1.253-3.557-1.253c-2.176,0-3.955,1.349-5.259,2.338   c-0.363,0.274-0.706,0.534-1.018,0.74c-0.668,0.439-1.176,0.596-1.408,0.596c-0.005,0-0.008,0-0.013,0   c-0.384-0.583-1.04-0.94-1.745-0.94c-0.333,0-0.665,0.081-0.961,0.234c-0.495,0.258-0.861,0.691-1.03,1.225   c-0.168,0.531-0.12,1.098,0.137,1.592c0.127,0.246,0.848,1.496,2.511,1.93c0.687,0.179,1.424,0.186,2.188,0.021   c1.709,1.518,3.896,2.349,6.204,2.349c2.415,0,4.688-0.906,6.431-2.557c1.042,0.248,2.025,0.123,2.99-0.383   c1.019-0.537,1.411-1.803,0.875-2.823C59.875,73.037,59.167,72.609,58.389,72.609"/><path d="M87.974,55.939c0,2.528-1.612,4.761-4.013,5.555l-1.139,0.377l-0.312,1.16c-3.737,13.921-17.14,24.025-31.87,24.025   c-14.396,0-27.2-9.729-31.134-23.656l-0.433-1.533l-1.591-0.084c-3.104-0.165-5.536-2.731-5.536-5.844   c0-3.031,2.365-5.592,5.384-5.831l1.573-0.124l0.404-1.526C22.876,34.982,35.761,25.57,50.641,25.57   c15.24,0,28.73,9.803,32.076,23.31l0.285,1.152l1.115,0.405C86.424,51.273,87.974,53.484,87.974,55.939 M86.75,46.732   c-2.051-7.159-6.729-13.635-13.201-18.266c-5.26-3.763-11.415-6.172-17.881-7.013c1.65-2.498,2.084-5.477,1.11-8.053   c-0.667-1.764-2.298-3.373-4.36-4.304c-1.869-0.843-3.985-0.91-5.903-0.185c-2.075,0.785-3.746,2.262-4.471,3.953   c-0.554,1.292-0.556,2.665-0.004,3.97c0.892,2.112,2.626,3.323,4.76,3.323c1.65,0,3.323-0.771,4.263-1.965   c0.68-0.864,0.924-1.878,0.688-2.855c-0.219-0.905-1.075-1.537-2.083-1.537c-0.281,0-0.555,0.049-0.815,0.147   c-1.109,0.419-1.689,1.635-1.336,2.752c-0.483-0.011-0.786-0.079-0.861-0.114c-0.313-0.141-0.553-0.396-0.674-0.717   c-0.43-1.137,0.113-2.629,1.21-3.325c0.469-0.297,1.061-0.455,1.712-0.455c1.516,0,3.386,0.882,4.024,2.569   c0.692,1.826-0.31,4.073-2.823,6.338c-0.075,0.014-0.177,0.029-0.247,0.04c-0.215,0.033-0.397,0.06-0.556,0.111   c-7.828,0.267-15.219,2.826-21.382,7.407c-6.024,4.477-10.341,10.473-12.508,17.365c-4.615,1.1-7.915,5.239-7.915,10.021   c0,4.918,3.402,9.082,8.159,10.08c4.939,15.032,19.257,25.489,34.987,25.489c8.023,0,16.084-2.74,22.692-7.716   c6.305-4.745,10.97-11.313,13.168-18.525c3.612-1.689,5.925-5.311,5.925-9.328C92.426,52.049,90.211,48.475,86.75,46.732"/></g><text x="0" y="115" fill="#000000" font-size="5px" font-weight="bold" font-family="'Helvetica Neue', Helvetica, Arial-Unicode, Arial, Sans-serif">Created by Eric Miller</text><text x="0" y="120" fill="#000000" font-size="5px" font-weight="bold" font-family="'Helvetica Neue', Helvetica, Arial-Unicode, Arial, Sans-serif">from the Noun Project</text></svg>