<svg xmlns="http://www.w3.org/2000/svg" xmlns:xlink="http://www.w3.org/1999/xlink" version="1.1" x="0px" y="0px" viewBox="0 0 52 65" enable-background="new 0 0 52 52" xml:space="preserve"><g><path d="M31.4010754,19.0176716c0,1.1404667-0.412571,2.0566463-1.2372971,2.7489548   c-0.824728,0.6923065-1.9796772,1.1065331-3.4644356,1.2426777v2.2056179h-1.473999v-2.1625824   c-1.7500114-0.0360012-3.2852554-0.3442917-4.6049023-0.9252834v-2.8404064   c0.6240292,0.3082905,1.3755131,0.5809917,2.2540359,0.8176937c0.8785229,0.2367001,1.6622829,0.3765678,2.3508663,0.4196053   v-3.3353271l-0.7208614-0.2797356c-1.4202023-0.5594749-2.4261799-1.1673641-3.017931-1.8236704   s-0.8876266-1.4686193-0.8876266-2.4369402c0-1.0399094,0.4071903-1.8952589,1.221159-2.5660486   s1.9490547-1.0775671,3.4052601-1.2211599V7.2149224h1.473999v1.6031079   c1.6424198,0.0715895,3.1271782,0.4018116,4.4542732,0.9898386l-1.0113564,2.5176334   c-1.118948-0.4589176-2.266449-0.7386551-3.4429169-0.8392115v3.1739397   c1.3986855,0.5379553,2.3939037,1.0043221,2.9856548,1.3986855c0.5917511,0.3943615,1.0258389,0.8284512,1.3018532,1.3018513   C31.2628632,17.8341694,31.4010754,18.3866081,31.4010754,19.0176716z M23.8374176,12.6482754   c0,0.3157387,0.1092472,0.575613,0.3281536,0.780036s0.571888,0.4142265,1.0597725,0.6294088v-2.5283928   C24.3000603,11.665472,23.8374176,12.0387306,23.8374176,12.6482754z M28.1625824,19.1790581   c0-0.3012543-0.1220741-0.5557499-0.3658104-0.7638969c-0.2437344-0.208147-0.6095448-0.4233303-1.0974293-0.645546v2.6790199   C27.6746979,20.2835236,28.1625824,19.8606071,28.1625824,19.1790581z"/><path fill="none" stroke="#000000" stroke-width="2" stroke-miterlimit="10" d="M26.3107796,30.9334049L26,31l-0.3107796-0.0665951   C17.7044868,29.2223892,12,22.1660137,12,14.0000143V14V3h14h14v11v0.0000143   C40,22.1660137,34.2955132,29.2223892,26.3107796,30.9334049z"/><line fill="none" stroke="#000000" stroke-width="2" stroke-miterlimit="10" x1="26" y1="31" x2="26" y2="43"/><rect x="13" y="43" fill="none" stroke="#000000" stroke-width="2" stroke-miterlimit="10" width="26" height="6"/><path fill="none" stroke="#000000" stroke-width="2" stroke-miterlimit="10" d="M40,7h9c0,0-0.2256012,10.441246-10.0713158,13"/><path fill="none" stroke="#000000" stroke-width="2" stroke-miterlimit="10" d="M12,7H3c0,0,0.2256021,10.441246,10.0713177,13"/></g><text x="0" y="67" fill="#000000" font-size="5px" font-weight="bold" font-family="'Helvetica Neue', Helvetica, Arial-Unicode, Arial, Sans-serif">Created by Dinosoft Labs</text><text x="0" y="72" fill="#000000" font-size="5px" font-weight="bold" font-family="'Helvetica Neue', Helvetica, Arial-Unicode, Arial, Sans-serif">from the Noun Project</text></svg>