<svg xmlns="http://www.w3.org/2000/svg" xmlns:xlink="http://www.w3.org/1999/xlink" version="1.1" x="0px" y="0px" viewBox="0 0 369.078 322.77625" style="enable-background:new 0 0 369.078 258.221;" xml:space="preserve"><g><path d="M277.164,144.072c-0.208-0.08-0.397-0.177-0.551-0.305c-0.152-0.129-0.256-0.225-0.332-0.304   c-0.076-0.081-0.127-0.144-0.176-0.206c-0.051-0.064-0.102-0.126-0.178-0.205c-0.074-0.079-0.172-0.172-0.322-0.295   c-0.15-0.125-0.199-0.219-0.201-0.296c0-0.077,0.047-0.14,0.095-0.202c0.048-0.062,0.097-0.123,0.095-0.199   c0-0.076-0.051-0.168-0.198-0.289c-0.146-0.12-0.274-0.209-0.397-0.284c-0.118-0.074-0.231-0.134-0.342-0.192   c-0.11-0.059-0.22-0.118-0.341-0.191c-0.117-0.072-0.24-0.16-0.383-0.277c-0.142-0.116-0.23-0.203-0.292-0.275   c-0.06-0.072-0.095-0.132-0.132-0.189c-0.031-0.057-0.066-0.115-0.126-0.188c-0.061-0.07-0.147-0.156-0.288-0.27   c-0.137-0.113-0.207-0.197-0.242-0.268c-0.039-0.07-0.043-0.125-0.047-0.182c-0.004-0.057-0.008-0.112-0.045-0.182   c-0.036-0.07-0.107-0.152-0.241-0.262c-0.134-0.11-0.237-0.191-0.324-0.26c-0.087-0.068-0.16-0.123-0.23-0.176   c-0.071-0.055-0.142-0.109-0.229-0.176c-0.088-0.068-0.189-0.148-0.317-0.254c-0.131-0.107-0.179-0.199-0.2-0.28   c-0.02-0.082-0.014-0.153-0.04-0.222c-0.024-0.067-0.078-0.131-0.218-0.197c-0.141-0.064-0.363-0.129-0.729-0.202   c-0.064-0.013-0.125-0.022-0.182-0.031c-0.059-0.009-0.113-0.017-0.166-0.023c-0.051-0.006-0.102-0.01-0.148-0.012   c-0.048-0.002-0.094-0.004-0.137-0.004c-0.202,0.002-0.361,0.031-0.51,0.074c-0.147,0.045-0.279,0.104-0.428,0.16   c-0.149,0.06-0.31,0.117-0.517,0.162c-0.206,0.045-0.454,0.076-0.772,0.078c-0.387,0.002-0.705-0.021-0.986-0.055   c-0.284-0.035-0.531-0.082-0.777-0.129c-0.248-0.047-0.494-0.092-0.775-0.127c-0.281-0.033-0.598-0.057-0.982-0.054   c-0.384,0.002-0.67,0.007-0.905,0.011c-0.236,0.006-0.421,0.012-0.608,0.018c-0.185,0.008-0.373,0.014-0.609,0.02   c-0.238,0.005-0.523,0.01-0.91,0.011c-0.384,0.002-0.658,0.017-0.877,0.04c-0.218,0.021-0.381,0.052-0.545,0.08   c-0.164,0.031-0.327,0.059-0.547,0.082c-0.219,0.021-0.494,0.037-0.879,0.04c-0.388,0.003-0.691-0.012-0.955-0.032   c-0.262-0.021-0.484-0.049-0.705-0.078c-0.221-0.029-0.443-0.057-0.705-0.078c-0.26-0.021-0.563-0.033-0.946-0.032   c-0.206,0.001-0.388,0-0.55-0.005c-0.165-0.003-0.309-0.008-0.438-0.014c-0.129-0.004-0.245-0.01-0.351-0.014   c-0.105-0.004-0.202-0.007-0.29-0.006c-0.081,0-0.154,0.004-0.229,0.008c-0.072,0.008-0.145,0.016-0.219,0.029   c-0.074,0.014-0.151,0.031-0.233,0.055c-0.081,0.023-0.169,0.051-0.263,0.086c-0.208,0.076-0.308,0.133-0.332,0.185   c-0.023,0.052,0.025,0.095,0.113,0.142c0.088,0.047,0.213,0.098,0.34,0.164c0.127,0.066,0.258,0.146,0.354,0.252   c0.097,0.107,0.146,0.189,0.171,0.257c0.023,0.067,0.025,0.122,0.025,0.177c0.002,0.055,0.002,0.109,0.027,0.178   c0.025,0.069,0.074,0.15,0.173,0.261c0.099,0.11,0.146,0.194,0.165,0.265c0.021,0.07,0.017,0.127,0.011,0.182   c-0.005,0.057-0.009,0.113,0.011,0.184c0.021,0.07,0.069,0.155,0.17,0.269c0.1,0.114,0.192,0.2,0.281,0.272   c0.089,0.07,0.174,0.128,0.26,0.185c0.086,0.058,0.17,0.115,0.262,0.186c0.09,0.073,0.186,0.161,0.289,0.277   c0.104,0.117,0.211,0.207,0.319,0.279c0.11,0.074,0.22,0.133,0.331,0.191c0.111,0.06,0.222,0.119,0.335,0.193   c0.108,0.074,0.22,0.164,0.327,0.285c0.109,0.121,0.15,0.213,0.158,0.289c0.008,0.076-0.017,0.137-0.042,0.199   c-0.025,0.063-0.051,0.125-0.042,0.201c0.008,0.078,0.051,0.172,0.16,0.295c0.109,0.125,0.148,0.219,0.144,0.299   c0,0.078-0.037,0.143-0.078,0.206c-0.037,0.063-0.076,0.128-0.078,0.208c-0.002,0.08,0.037,0.177,0.149,0.305   c0.11,0.129,0.194,0.227,0.261,0.307c0.068,0.082,0.119,0.148,0.172,0.213s0.104,0.131,0.171,0.213   c0.069,0.084,0.152,0.182,0.269,0.314c0.117,0.133,0.213,0.232,0.299,0.318c0.085,0.084,0.162,0.15,0.238,0.218   c0.076,0.067,0.152,0.136,0.239,0.22c0.085,0.086,0.186,0.188,0.306,0.326c0.12,0.137,0.283,0.24,0.469,0.326   c0.186,0.086,0.393,0.155,0.602,0.225c0.207,0.068,0.416,0.139,0.605,0.226c0.189,0.087,0.355,0.193,0.482,0.335   c0.128,0.143,0.166,0.25,0.158,0.34c-0.008,0.092-0.06,0.164-0.112,0.236c-0.052,0.073-0.105,0.146-0.112,0.238   c-0.008,0.092,0.03,0.201,0.16,0.348c0.129,0.146,0.287,0.258,0.461,0.35c0.175,0.092,0.363,0.166,0.555,0.24   c0.188,0.074,0.38,0.148,0.556,0.242c0.179,0.094,0.342,0.207,0.479,0.359c0.136,0.152,0.233,0.266,0.313,0.363   c0.08,0.096,0.143,0.174,0.202,0.252c0.061,0.076,0.124,0.154,0.204,0.252c0.082,0.098,0.182,0.215,0.322,0.373   c0.141,0.158,0.208,0.277,0.239,0.377c0.03,0.102,0.022,0.182,0.016,0.262c-0.007,0.082-0.016,0.162,0.015,0.264   c0.031,0.102,0.101,0.225,0.244,0.387c0.145,0.165,0.32,0.288,0.516,0.391c0.195,0.103,0.405,0.186,0.616,0.269   c0.213,0.082,0.425,0.165,0.622,0.268c0.197,0.105,0.381,0.232,0.533,0.4c0.154,0.171,0.339,0.299,0.541,0.404   c0.201,0.107,0.422,0.193,0.641,0.279c0.223,0.085,0.441,0.172,0.649,0.279c0.204,0.109,0.396,0.24,0.558,0.416   c0.162,0.178,0.232,0.311,0.257,0.422c0.025,0.111,0.005,0.202-0.017,0.293c-0.02,0.09-0.043,0.18-0.017,0.295   c0.025,0.113,0.098,0.25,0.261,0.432c0.166,0.184,0.275,0.322,0.355,0.439c0.08,0.116,0.131,0.21,0.182,0.302   c0.053,0.095,0.103,0.188,0.185,0.307c0.082,0.117,0.191,0.26,0.363,0.449c0.17,0.191,0.218,0.336,0.203,0.457   c-0.014,0.12-0.091,0.219-0.17,0.316c-0.078,0.099-0.154,0.197-0.172,0.32c-0.014,0.123,0.033,0.271,0.207,0.469   c0.176,0.197,0.329,0.348,0.473,0.471c0.145,0.125,0.28,0.226,0.414,0.327c0.135,0.101,0.271,0.202,0.416,0.328   c0.15,0.128,0.309,0.282,0.492,0.487c0.183,0.207,0.339,0.363,0.479,0.494c0.143,0.131,0.271,0.234,0.399,0.34   c0.129,0.105,0.258,0.21,0.402,0.344c0.145,0.132,0.305,0.292,0.495,0.507c0.192,0.216,0.386,0.378,0.577,0.514   c0.191,0.136,0.385,0.244,0.579,0.354c0.192,0.108,0.387,0.219,0.583,0.356c0.196,0.14,0.395,0.306,0.596,0.528   c0.202,0.227,0.419,0.396,0.641,0.537c0.223,0.142,0.452,0.256,0.683,0.369c0.231,0.113,0.464,0.228,0.689,0.373   c0.228,0.144,0.45,0.317,0.663,0.552c0.215,0.233,0.346,0.41,0.436,0.558c0.092,0.148,0.143,0.268,0.191,0.388   c0.051,0.12,0.1,0.241,0.193,0.392c0.094,0.152,0.228,0.334,0.45,0.578c0.224,0.245,0.435,0.431,0.638,0.586   c0.204,0.154,0.403,0.279,0.602,0.402c0.2,0.125,0.4,0.251,0.609,0.408c0.207,0.158,0.425,0.348,0.66,0.604   c0.234,0.257,0.41,0.451,0.559,0.613c0.148,0.162,0.268,0.293,0.387,0.424c0.121,0.131,0.24,0.264,0.392,0.428   c0.153,0.166,0.335,0.366,0.579,0.633c0.246,0.27,0.246,0.472,0.123,0.643c-0.125,0.172-0.371,0.311-0.621,0.449   c-0.248,0.139-0.497,0.278-0.625,0.453c-0.125,0.176-0.129,0.386,0.119,0.666c0.248,0.282,0.574,0.494,0.942,0.672   c0.369,0.176,0.776,0.318,1.185,0.461c0.411,0.143,0.821,0.287,1.194,0.467c0.377,0.18,0.719,0.4,0.984,0.694   c0.268,0.296,0.311,0.519,0.24,0.706c-0.07,0.188-0.253,0.34-0.439,0.493c-0.185,0.153-0.368,0.307-0.441,0.497   c-0.073,0.193-0.03,0.426,0.241,0.736c0.275,0.309,0.604,0.545,0.961,0.74c0.361,0.195,0.748,0.354,1.137,0.511   c0.391,0.157,0.783,0.316,1.148,0.517c0.369,0.199,0.713,0.441,1.005,0.768c0.294,0.328,0.515,0.574,0.696,0.781   c0.182,0.207,0.326,0.374,0.473,0.542c0.145,0.167,0.293,0.336,0.478,0.548c0.188,0.212,0.415,0.467,0.722,0.811   c0.311,0.344,0.393,0.604,0.361,0.822c-0.03,0.219-0.176,0.395-0.321,0.574c-0.148,0.178-0.292,0.357-0.325,0.58   c-0.033,0.225,0.053,0.496,0.369,0.857c0.317,0.363,0.574,0.637,0.801,0.865c0.229,0.23,0.426,0.416,0.623,0.601   c0.199,0.187,0.398,0.373,0.631,0.608c0.234,0.237,0.504,0.52,0.838,0.903c0.339,0.385,0.795,0.674,1.307,0.916   c0.517,0.242,1.093,0.436,1.669,0.631c0.579,0.195,1.161,0.392,1.689,0.639c0.531,0.249,1.006,0.549,1.373,0.953   c0.367,0.406,0.455,0.713,0.4,0.973c-0.057,0.258-0.254,0.468-0.453,0.678c-0.199,0.211-0.399,0.422-0.455,0.689   c-0.059,0.267,0.029,0.586,0.404,1.015c0.38,0.432,0.914,0.758,1.527,1.027c0.615,0.273,1.31,0.49,2.006,0.709   c0.698,0.219,1.399,0.439,2.029,0.717c0.631,0.279,1.193,0.617,1.609,1.072c0.418,0.457,0.57,0.803,0.587,1.094   c0.018,0.291-0.101,0.526-0.218,0.764c-0.118,0.236-0.236,0.475-0.221,0.773c0.019,0.301,0.174,0.662,0.605,1.146   c0.435,0.485,0.933,0.852,1.467,1.158c0.533,0.308,1.103,0.554,1.674,0.802c0.574,0.249,1.148,0.499,1.697,0.815   c0.553,0.315,1.078,0.699,1.551,1.215c0.475,0.519,0.598,0.911,0.545,1.241c-0.051,0.331-0.282,0.599-0.514,0.868   c-0.232,0.271-0.463,0.543-0.518,0.882c-0.055,0.341,0.071,0.753,0.56,1.306c0.493,0.555,0.802,1.021,1.054,1.436   c0.253,0.417,0.446,0.779,0.7,1.121c0.256,0.344,0.578,0.669,1.09,1.011c0.515,0.345,1.221,0.706,2.252,1.124   c0.644,0.261,1.207,0.469,1.718,0.635c0.511,0.166,0.965,0.287,1.389,0.377c0.421,0.09,0.811,0.146,1.192,0.18   c0.38,0.032,0.752,0.043,1.137,0.04c0.227-0.001,0.457-0.005,0.696-0.013c0.24-0.008,0.491-0.017,0.755-0.028   c0.265-0.01,0.545-0.021,0.844-0.028c0.299-0.008,0.617-0.014,0.961-0.016c0.926-0.005,1.643,0.013,2.252,0.041   c0.609,0.029,1.115,0.068,1.623,0.107c0.506,0.041,1.014,0.081,1.626,0.109c0.614,0.029,1.335,0.047,2.269,0.042   c0.928-0.005,1.582-0.052,2.096-0.12c0.514-0.069,0.889-0.158,1.262-0.248c0.375-0.09,0.749-0.178,1.26-0.246   c0.511-0.068,1.16-0.115,2.084-0.121c0.93-0.004,1.511-0.113,1.92-0.275c0.407-0.162,0.641-0.375,0.877-0.588   c0.232-0.213,0.463-0.424,0.863-0.584c0.4-0.158,0.973-0.266,1.885-0.271c0.914-0.005,1.779,0.151,2.621,0.388   c0.845,0.239,1.672,0.56,2.5,0.883c0.834,0.322,1.671,0.648,2.532,0.892c0.864,0.244,1.755,0.405,2.686,0.4   c0.41-0.002,0.815,0.004,1.212,0.014c0.397,0.011,0.787,0.025,1.165,0.039c0.378,0.015,0.745,0.029,1.096,0.041   c0.352,0.009,0.69,0.016,1.01,0.014c0.408-0.002,0.785-0.018,1.127-0.054c0.344-0.036,0.65-0.095,0.918-0.183   c0.266-0.088,0.491-0.204,0.666-0.359c0.176-0.154,0.303-0.346,0.376-0.582c0.132-0.432,0-0.816-0.35-1.197   c-0.35-0.379-0.912-0.752-1.643-1.16c-0.723-0.404-1.607-0.844-2.603-1.352c-0.988-0.505-2.084-1.078-3.238-1.755   c-0.894-0.526-1.579-0.921-2.145-1.252c-0.563-0.329-1.009-0.597-1.425-0.865c-0.415-0.268-0.8-0.536-1.239-0.871   c-0.44-0.332-0.931-0.728-1.561-1.247c-0.622-0.516-1.131-0.897-1.582-1.215c-0.449-0.316-0.84-0.568-1.23-0.82   c-0.389-0.248-0.775-0.498-1.215-0.807c-0.438-0.31-0.926-0.679-1.515-1.166c-0.581-0.484-0.814-0.844-0.874-1.146   c-0.057-0.298,0.059-0.536,0.171-0.774c0.112-0.236,0.226-0.473,0.167-0.766c-0.059-0.29-0.285-0.637-0.849-1.094   c-0.56-0.454-1.026-0.792-1.448-1.072c-0.42-0.277-0.797-0.5-1.169-0.721c-0.372-0.221-0.743-0.439-1.153-0.713   c-0.41-0.272-0.857-0.598-1.387-1.027c-0.523-0.428-1.108-0.746-1.717-1.008c-0.61-0.262-1.25-0.469-1.886-0.676   c-0.634-0.206-1.267-0.412-1.862-0.669c-0.593-0.255-1.15-0.56-1.638-0.968c-0.483-0.402-0.745-0.703-0.896-0.954   c-0.152-0.249-0.195-0.447-0.236-0.646c-0.042-0.197-0.084-0.395-0.233-0.639c-0.149-0.244-0.403-0.533-0.868-0.918   c-0.465-0.381-0.722-0.666-0.879-0.902c-0.157-0.234-0.214-0.422-0.27-0.609c-0.057-0.188-0.113-0.374-0.27-0.604   c-0.154-0.232-0.405-0.506-0.85-0.869c-0.442-0.361-0.934-0.629-1.452-0.851c-0.516-0.222-1.056-0.396-1.596-0.571   c-0.536-0.174-1.072-0.348-1.577-0.564c-0.503-0.217-0.976-0.475-1.39-0.82c-0.411-0.342-0.666-0.596-0.844-0.81   c-0.177-0.21-0.276-0.378-0.377-0.546c-0.1-0.168-0.199-0.336-0.375-0.543c-0.172-0.207-0.42-0.453-0.814-0.779   c-0.391-0.324-0.698-0.564-0.963-0.766c-0.264-0.199-0.488-0.358-0.711-0.518c-0.223-0.156-0.443-0.315-0.703-0.512   c-0.261-0.196-0.559-0.43-0.933-0.74c-0.373-0.309-0.688-0.539-0.972-0.729c-0.283-0.191-0.539-0.342-0.791-0.492   c-0.256-0.15-0.508-0.301-0.787-0.487c-0.276-0.187-0.58-0.409-0.936-0.704c-0.351-0.295-0.392-0.514-0.281-0.698   c0.112-0.183,0.376-0.329,0.642-0.476c0.264-0.146,0.525-0.292,0.635-0.473c0.106-0.178,0.063-0.393-0.286-0.674   c-0.345-0.279-0.608-0.488-0.829-0.661c-0.219-0.173-0.399-0.31-0.576-0.448c-0.178-0.136-0.355-0.271-0.572-0.441   c-0.217-0.17-0.471-0.372-0.801-0.641c-0.332-0.267-0.674-0.465-1.027-0.631c-0.35-0.162-0.707-0.294-1.064-0.424   c-0.355-0.129-0.709-0.258-1.055-0.42c-0.344-0.16-0.676-0.354-0.988-0.609c-0.311-0.256-0.64-0.445-0.979-0.602   c-0.34-0.156-0.688-0.281-1.036-0.404c-0.348-0.125-0.692-0.248-1.025-0.402c-0.332-0.154-0.65-0.338-0.944-0.582   c-0.295-0.244-0.452-0.427-0.538-0.578c-0.09-0.15-0.111-0.271-0.133-0.391c-0.021-0.121-0.043-0.24-0.131-0.39   c-0.087-0.148-0.24-0.325-0.523-0.56c-0.283-0.232-0.48-0.406-0.635-0.553c-0.152-0.143-0.262-0.258-0.373-0.373   c-0.109-0.113-0.219-0.227-0.369-0.368c-0.15-0.142-0.34-0.311-0.613-0.534c-0.271-0.223-0.391-0.391-0.436-0.529   c-0.045-0.139-0.015-0.25,0.016-0.359c0.031-0.111,0.06-0.222,0.017-0.357c-0.046-0.137-0.163-0.299-0.429-0.516   c-0.264-0.213-0.458-0.373-0.621-0.506c-0.16-0.131-0.287-0.237-0.415-0.344c-0.13-0.104-0.255-0.209-0.414-0.339   c-0.158-0.13-0.349-0.286-0.604-0.492c-0.252-0.206-0.455-0.358-0.632-0.485c-0.176-0.127-0.327-0.229-0.478-0.328   c-0.15-0.102-0.303-0.201-0.477-0.326c-0.172-0.125-0.371-0.275-0.614-0.473c-0.241-0.198-0.532-0.345-0.847-0.466   c-0.313-0.12-0.65-0.218-0.986-0.313c-0.336-0.096-0.671-0.19-0.98-0.311c-0.309-0.119-0.59-0.262-0.82-0.452   c-0.227-0.189-0.231-0.331-0.123-0.449c0.107-0.118,0.326-0.214,0.544-0.309c0.218-0.094,0.434-0.189,0.54-0.307   c0.104-0.115,0.098-0.255-0.129-0.438c-0.227-0.182-0.406-0.318-0.559-0.431c-0.152-0.112-0.281-0.202-0.412-0.292   c-0.127-0.09-0.256-0.179-0.407-0.29c-0.15-0.112-0.323-0.243-0.542-0.421c-0.218-0.176-0.484-0.305-0.775-0.414   c-0.291-0.107-0.605-0.193-0.92-0.278c-0.314-0.085-0.627-0.17-0.912-0.276c-0.285-0.105-0.545-0.233-0.752-0.402   c-0.204-0.169-0.34-0.295-0.441-0.399c-0.102-0.104-0.17-0.188-0.236-0.27c-0.067-0.084-0.135-0.166-0.234-0.27   c-0.101-0.104-0.234-0.227-0.436-0.391c-0.197-0.162-0.389-0.284-0.576-0.385c-0.186-0.102-0.367-0.181-0.549-0.262   c-0.182-0.079-0.361-0.158-0.545-0.258c-0.184-0.099-0.369-0.217-0.559-0.375c-0.191-0.157-0.376-0.273-0.56-0.371   c-0.182-0.098-0.361-0.174-0.542-0.252c-0.18-0.076-0.358-0.152-0.538-0.248c-0.178-0.096-0.357-0.209-0.541-0.361   c-0.182-0.15-0.166-0.266-0.051-0.361c0.115-0.094,0.326-0.172,0.539-0.248c0.211-0.076,0.422-0.152,0.535-0.246   c0.112-0.094,0.125-0.205-0.057-0.352c-0.18-0.146-0.457-0.255-0.779-0.345c-0.322-0.09-0.693-0.16-1.061-0.23   c-0.369-0.072-0.736-0.142-1.053-0.23c-0.316-0.088-0.586-0.195-0.757-0.336c-0.171-0.143-0.18-0.248-0.108-0.338   c0.07-0.088,0.22-0.16,0.368-0.23c0.151-0.07,0.298-0.141,0.369-0.229c0.067-0.087,0.058-0.191-0.11-0.328   c-0.168-0.137-0.355-0.238-0.55-0.323c-0.192-0.083-0.396-0.15-0.597-0.218c-0.203-0.066-0.404-0.133-0.596-0.217   c-0.19-0.084-0.371-0.183-0.533-0.316c-0.16-0.132-0.355-0.23-0.563-0.311c-0.21-0.081-0.437-0.146-0.662-0.21   C277.596,144.218,277.371,144.153,277.164,144.072z"/><path d="M131.004,158.997c0.088-0.055,0.175-0.104,0.263-0.169c0.165-0.121,0.331-0.268,0.502-0.459   c0.167-0.191,0.387-0.336,0.632-0.455c0.242-0.118,0.513-0.213,0.78-0.309c0.269-0.094,0.534-0.189,0.776-0.307   c0.239-0.117,0.451-0.258,0.609-0.443c0.16-0.185,0.171-0.321,0.107-0.435c-0.062-0.114-0.197-0.204-0.334-0.292   c-0.137-0.09-0.271-0.18-0.333-0.291c-0.062-0.111-0.049-0.245,0.11-0.424c0.154-0.178,0.4-0.311,0.689-0.422   c0.289-0.11,0.621-0.199,0.953-0.288c0.33-0.089,0.659-0.177,0.942-0.287c0.284-0.108,0.521-0.238,0.667-0.41   c0.147-0.171,0.135-0.298,0.044-0.401c-0.091-0.105-0.261-0.188-0.429-0.271c-0.17-0.083-0.336-0.165-0.426-0.269   c-0.089-0.104-0.1-0.227,0.047-0.393c0.146-0.164,0.282-0.289,0.416-0.391c0.131-0.102,0.262-0.184,0.387-0.266   c0.128-0.08,0.256-0.162,0.387-0.264c0.131-0.1,0.263-0.221,0.403-0.379c0.14-0.16,0.163-0.277,0.13-0.377   c-0.031-0.098-0.121-0.174-0.211-0.252c-0.09-0.077-0.178-0.154-0.21-0.25c-0.032-0.096-0.009-0.211,0.13-0.365   c0.137-0.153,0.394-0.27,0.712-0.365c0.316-0.096,0.692-0.174,1.066-0.252c0.375-0.076,0.748-0.154,1.061-0.248   c0.309-0.095,0.56-0.208,0.686-0.357c0.128-0.146,0.206-0.258,0.257-0.35c0.053-0.092,0.08-0.164,0.107-0.237   c0.027-0.073,0.053-0.145,0.105-0.235c0.051-0.091,0.125-0.199,0.25-0.344c0.123-0.143,0.13-0.248,0.076-0.338   c-0.053-0.088-0.163-0.156-0.274-0.226c-0.11-0.068-0.222-0.139-0.272-0.225c-0.053-0.086-0.045-0.189,0.076-0.328   c0.123-0.14,0.211-0.242,0.279-0.328c0.068-0.086,0.121-0.154,0.17-0.223c0.053-0.068,0.104-0.137,0.172-0.221   c0.068-0.084,0.152-0.186,0.271-0.32c0.118-0.133,0.328-0.234,0.588-0.318c0.256-0.082,0.559-0.15,0.861-0.217   c0.301-0.068,0.604-0.135,0.857-0.219c0.252-0.082,0.458-0.182,0.568-0.31c0.111-0.129,0.057-0.227-0.083-0.305   c-0.139-0.08-0.358-0.143-0.579-0.205c-0.221-0.063-0.44-0.123-0.576-0.201c-0.137-0.078-0.191-0.172-0.078-0.297   c0.109-0.127,0.277-0.221,0.47-0.3c0.192-0.079,0.413-0.142,0.631-0.204c0.22-0.063,0.439-0.125,0.626-0.203   c0.192-0.076,0.354-0.17,0.461-0.291c0.103-0.121,0.184-0.213,0.247-0.288c0.065-0.075,0.116-0.136,0.169-0.196   c0.051-0.059,0.1-0.119,0.166-0.193c0.062-0.074,0.139-0.162,0.242-0.281c0.103-0.117,0.211-0.205,0.324-0.279   c0.113-0.072,0.227-0.132,0.344-0.189c0.115-0.061,0.229-0.118,0.34-0.191c0.111-0.071,0.217-0.158,0.316-0.274   c0.098-0.113,0.092-0.198,0.034-0.267c-0.057-0.07-0.163-0.125-0.272-0.182c-0.109-0.056-0.217-0.111-0.271-0.18   c-0.057-0.07-0.06-0.153,0.037-0.264c0.098-0.111,0.193-0.193,0.289-0.264c0.094-0.068,0.19-0.123,0.285-0.18   c0.095-0.055,0.187-0.107,0.281-0.176c0.095-0.069,0.189-0.151,0.283-0.259c0.096-0.107,0.18-0.185,0.244-0.243   c0.063-0.057,0.105-0.098,0.107-0.135c0.002-0.036-0.033-0.068-0.121-0.111c-0.088-0.041-0.23-0.092-0.439-0.166   c-0.205-0.072-0.336-0.135-0.441-0.186c-0.105-0.051-0.184-0.093-0.285-0.125c-0.104-0.031-0.227-0.054-0.422-0.068   c-0.193-0.015-0.457-0.021-0.841-0.019c-0.386,0.003-0.671,0.003-0.909,0.001c-0.238-0.002-0.428-0.004-0.614-0.006   c-0.188-0.003-0.376-0.006-0.614-0.007c-0.236-0.001-0.521-0.001-0.904,0c-0.385,0.002-0.703,0.036-0.992,0.085   c-0.288,0.049-0.544,0.113-0.803,0.18c-0.256,0.064-0.514,0.129-0.805,0.178c-0.289,0.051-0.612,0.084-0.997,0.086   c-0.388,0.002-0.675,0-0.911-0.002c-0.238-0.002-0.426-0.006-0.612-0.011c-0.188-0.005-0.374-0.008-0.612-0.011   c-0.236-0.002-0.523-0.004-0.908-0.002c-0.388,0.002-0.668-0.004-0.895-0.016c-0.228-0.012-0.402-0.027-0.574-0.043   c-0.176-0.016-0.348-0.032-0.574-0.044c-0.227-0.011-0.506-0.019-0.891-0.017c-0.274,0.002-0.5-0.009-0.692-0.025   c-0.192-0.016-0.352-0.038-0.498-0.061c-0.144-0.023-0.272-0.045-0.403-0.063c-0.13-0.016-0.262-0.027-0.413-0.027   c-0.06,0.002-0.124,0.004-0.191,0.008c-0.067,0.004-0.139,0.012-0.215,0.02c-0.078,0.009-0.16,0.021-0.247,0.036   c-0.089,0.015-0.183,0.033-0.285,0.055c-0.027,0.006-0.046,0.011-0.071,0.017c0.01,0.895,0.027,1.776,0.028,2.688   C131.538,146.471,131.354,152.6,131.004,158.997z"/><path d="M130.823,161.559c0.179-0.207,0.154-0.361,0.031-0.489c-0.001-0.001-0.001-0.001-0.002-0.001   c-0.021,0.174-0.03,0.352-0.056,0.524C130.807,161.58,130.813,161.571,130.823,161.559z"/><path d="M116.188,173.442c-2.813-0.161-5.43-1.124-7.609-2.761v14.867c0.13-0.106,0.262-0.21,0.371-0.336   c0.301-0.346,0.378-0.602,0.344-0.815c-0.037-0.212-0.184-0.38-0.331-0.548c-0.145-0.167-0.291-0.334-0.325-0.542   c-0.035-0.207,0.041-0.456,0.338-0.786c0.293-0.327,0.654-0.572,1.049-0.775c0.393-0.203,0.82-0.365,1.245-0.527   s0.847-0.322,1.233-0.524c0.386-0.199,0.732-0.435,1.007-0.75c0.271-0.312,0.507-0.546,0.724-0.738   c0.216-0.193,0.412-0.347,0.608-0.5c0.196-0.152,0.394-0.305,0.604-0.494c0.211-0.189,0.438-0.414,0.698-0.713   c0.258-0.299,0.291-0.518,0.213-0.701c-0.078-0.182-0.268-0.326-0.457-0.471c-0.189-0.143-0.375-0.285-0.45-0.465   c-0.077-0.178-0.042-0.392,0.213-0.677c0.254-0.283,0.523-0.495,0.802-0.671c0.275-0.175,0.56-0.314,0.843-0.454   c0.283-0.14,0.565-0.278,0.838-0.45c0.108-0.069,0.214-0.149,0.318-0.231c-0.491,0.053-0.988,0.085-1.493,0.085   C116.707,173.465,116.449,173.457,116.188,173.442z"/><path d="M235.66,178.098c0.266,0.15,0.531,0.301,0.76,0.492c0.229,0.191,0.42,0.422,0.533,0.732   c0.115,0.313,0.311,0.547,0.547,0.742c0.237,0.197,0.516,0.355,0.795,0.514c0.28,0.158,0.563,0.316,0.804,0.517   c0.241,0.201,0.446,0.443,0.572,0.77c0.126,0.329,0.149,0.576,0.122,0.785c-0.029,0.209-0.111,0.377-0.191,0.545   c-0.083,0.17-0.165,0.34-0.193,0.551c-0.029,0.215-0.008,0.471,0.121,0.815c0.129,0.345,0.209,0.605,0.264,0.822   c0.055,0.22,0.084,0.394,0.113,0.573c0.031,0.176,0.063,0.354,0.117,0.578c0.057,0.225,0.139,0.494,0.275,0.857   c0.134,0.363,0.131,0.639,0.055,0.869c-0.074,0.233-0.219,0.418-0.365,0.606c-0.146,0.189-0.294,0.377-0.37,0.615   c-0.076,0.236-0.083,0.523,0.053,0.906c0.139,0.387,0.24,0.678,0.325,0.922c0.084,0.244,0.151,0.441,0.219,0.639   c0.066,0.199,0.136,0.396,0.221,0.646c0.088,0.25,0.193,0.553,0.336,0.959c0.146,0.406,0.275,0.714,0.395,0.971   c0.12,0.26,0.232,0.466,0.345,0.675c0.115,0.21,0.228,0.419,0.352,0.684c0.123,0.265,0.258,0.585,0.412,1.017   c0.154,0.432,0.436,0.759,0.779,1.03c0.346,0.274,0.755,0.493,1.167,0.714c0.411,0.221,0.825,0.441,1.18,0.721   c0.356,0.281,0.651,0.62,0.825,1.076c0.174,0.459,0.043,0.806-0.238,1.098c-0.285,0.293-0.724,0.531-1.162,0.769   c-0.442,0.239-0.887,0.479-1.178,0.78c-0.293,0.301-0.434,0.664-0.266,1.15c0.168,0.487,0.309,0.856,0.439,1.164   c0.129,0.311,0.244,0.559,0.359,0.809c0.118,0.252,0.234,0.504,0.367,0.822c0.133,0.318,0.281,0.704,0.461,1.221   c0.18,0.521,0.5,0.912,0.888,1.24c0.391,0.328,0.851,0.593,1.314,0.857c0.464,0.268,0.932,0.535,1.331,0.872   c0.403,0.339,0.741,0.75,0.944,1.303c0.207,0.558,0.189,1.022,0.097,1.433c-0.095,0.412-0.267,0.769-0.364,1.105   c-0.102,0.338-0.128,0.656,0.07,0.994c0.199,0.34,0.627,0.699,1.436,1.117c0.201,0.105,0.393,0.193,0.574,0.266   c0.182,0.074,0.352,0.134,0.516,0.18c0.162,0.045,0.316,0.077,0.465,0.098c0.147,0.02,0.29,0.031,0.424,0.029   c0.4-0.002,0.752-0.09,1.098-0.221c0.346-0.133,0.686-0.307,1.06-0.48c0.372-0.174,0.782-0.347,1.267-0.477   c0.484-0.131,1.045-0.219,1.729-0.222c0.916-0.005,1.581-0.062,2.119-0.145c0.538-0.083,0.947-0.19,1.357-0.298   c0.407-0.106,0.816-0.215,1.35-0.295c0.529-0.082,1.188-0.139,2.094-0.143c0.913-0.004,1.688,0.18,2.397,0.457   c0.711,0.281,1.357,0.66,2.008,1.039c0.654,0.381,1.311,0.765,2.037,1.053c0.73,0.29,1.527,0.482,2.455,0.477   c0.93-0.004,1.525-0.192,1.956-0.469c0.429-0.277,0.69-0.643,0.95-1.006c0.258-0.361,0.515-0.721,0.934-0.99   c0.419-0.269,1-0.449,1.909-0.453c0.909-0.006,1.679,0.141,2.382,0.361c0.705,0.223,1.346,0.522,1.988,0.822   c0.646,0.303,1.295,0.605,2.012,0.833c0.721,0.227,1.514,0.379,2.438,0.374c0.332-0.002,0.645,0,0.939,0.004   c0.293,0.004,0.568,0.011,0.829,0.017c0.259,0.007,0.502,0.013,0.729,0.017c0.23,0.006,0.444,0.008,0.647,0.008   c0.359-0.002,0.68-0.017,0.973-0.055c0.294-0.035,0.559-0.095,0.81-0.188c0.249-0.093,0.483-0.22,0.711-0.392   c0.228-0.17,0.45-0.385,0.678-0.652c0.361-0.426,0.376-0.754,0.156-1.043c-0.218-0.291-0.667-0.542-1.232-0.813   c-0.565-0.27-1.243-0.561-1.923-0.925c-0.674-0.362-1.35-0.8-1.909-1.362c-0.542-0.545-0.895-0.971-1.142-1.338   c-0.247-0.363-0.391-0.67-0.513-0.978c-0.122-0.304-0.222-0.608-0.382-0.97c-0.158-0.357-0.375-0.77-0.725-1.291   c-0.35-0.516-0.596-0.9-0.791-1.219c-0.192-0.317-0.336-0.57-0.479-0.822c-0.143-0.251-0.285-0.502-0.474-0.813   c-0.189-0.311-0.427-0.682-0.76-1.171c-0.327-0.485-0.376-0.847-0.285-1.147c0.089-0.299,0.316-0.537,0.543-0.775   c0.226-0.238,0.451-0.475,0.536-0.768c0.088-0.291,0.035-0.639-0.287-1.098c-0.319-0.456-0.52-0.795-0.658-1.076   c-0.14-0.281-0.217-0.504-0.296-0.726c-0.077-0.221-0.156-0.442-0.292-0.717c-0.135-0.274-0.328-0.6-0.633-1.032   c-0.303-0.429-0.53-0.748-0.716-1.013c-0.186-0.264-0.335-0.474-0.481-0.684c-0.146-0.209-0.291-0.416-0.473-0.676   c-0.184-0.257-0.4-0.564-0.689-0.971c-0.285-0.406-0.682-0.706-1.13-0.955c-0.448-0.248-0.946-0.443-1.444-0.639   c-0.496-0.195-0.991-0.391-1.43-0.633c-0.434-0.242-0.812-0.531-1.073-0.916c-0.262-0.383-0.422-0.668-0.532-0.904   c-0.111-0.236-0.172-0.424-0.232-0.611c-0.06-0.187-0.12-0.372-0.228-0.604c-0.107-0.23-0.263-0.506-0.513-0.869   c-0.249-0.363-0.429-0.633-0.574-0.855c-0.143-0.225-0.253-0.401-0.363-0.579c-0.109-0.176-0.219-0.353-0.359-0.571   c-0.141-0.217-0.313-0.479-0.552-0.824c-0.236-0.342-0.472-0.598-0.704-0.809c-0.235-0.213-0.468-0.379-0.701-0.546   c-0.231-0.167-0.463-0.333-0.691-0.542c-0.227-0.205-0.455-0.453-0.676-0.779c-0.223-0.324-0.184-0.567-0.018-0.77   c0.165-0.203,0.458-0.363,0.749-0.525c0.29-0.162,0.579-0.321,0.74-0.52c0.16-0.198,0.191-0.436-0.03-0.746   c-0.22-0.309-0.468-0.539-0.729-0.73c-0.259-0.19-0.533-0.34-0.808-0.492c-0.271-0.149-0.542-0.299-0.798-0.486   c-0.254-0.188-0.492-0.41-0.699-0.707c-0.207-0.293-0.289-0.514-0.311-0.695c-0.023-0.184,0.016-0.328,0.054-0.475   c0.038-0.145,0.076-0.289,0.054-0.469c-0.023-0.178-0.105-0.391-0.305-0.674c-0.197-0.279-0.502-0.488-0.857-0.66   c-0.354-0.172-0.758-0.309-1.163-0.444c-0.401-0.136-0.804-0.271-1.151-0.44c-0.347-0.168-0.637-0.371-0.82-0.64   c-0.184-0.268-0.234-0.468-0.221-0.634c0.017-0.166,0.098-0.299,0.179-0.432c0.08-0.132,0.159-0.264,0.175-0.427   c0.014-0.163-0.037-0.356-0.215-0.614c-0.18-0.255-0.412-0.445-0.671-0.604c-0.257-0.156-0.544-0.281-0.827-0.405   c-0.281-0.124-0.564-0.247-0.816-0.401c-0.254-0.154-0.477-0.34-0.646-0.585c-0.165-0.245-0.266-0.428-0.33-0.579   c-0.065-0.151-0.099-0.271-0.131-0.393c-0.031-0.119-0.065-0.238-0.129-0.389c-0.064-0.147-0.16-0.324-0.322-0.56   c-0.16-0.234-0.264-0.409-0.338-0.554c-0.072-0.144-0.121-0.26-0.164-0.375c-0.047-0.113-0.092-0.228-0.163-0.369   c-0.073-0.143-0.173-0.311-0.327-0.535c-0.154-0.225-0.211-0.391-0.22-0.531c-0.008-0.139,0.032-0.25,0.073-0.36   c0.041-0.11,0.081-0.222,0.072-0.358c-0.008-0.136-0.064-0.299-0.215-0.514c-0.148-0.215-0.287-0.375-0.42-0.508   c-0.131-0.133-0.254-0.238-0.379-0.344c-0.125-0.106-0.248-0.21-0.377-0.34c-0.127-0.129-0.262-0.287-0.405-0.494   c-0.144-0.205-0.263-0.359-0.37-0.486c-0.105-0.127-0.202-0.229-0.297-0.33c-0.098-0.102-0.191-0.202-0.296-0.326   c-0.105-0.127-0.222-0.275-0.36-0.475c-0.137-0.197-0.309-0.345-0.502-0.467c-0.191-0.122-0.402-0.219-0.611-0.315   s-0.42-0.192-0.607-0.312c-0.189-0.121-0.358-0.264-0.487-0.455c-0.129-0.19-0.058-0.332,0.11-0.45   c0.168-0.118,0.436-0.214,0.699-0.31c0.268-0.095,0.532-0.189,0.697-0.307c0.165-0.117,0.23-0.256,0.1-0.439   c-0.129-0.184-0.256-0.32-0.379-0.434c-0.123-0.112-0.244-0.202-0.364-0.292c-0.12-0.089-0.239-0.179-0.361-0.29   c-0.12-0.111-0.243-0.244-0.369-0.421c-0.124-0.176-0.376-0.306-0.692-0.415c-0.316-0.106-0.694-0.192-1.072-0.277   c-0.376-0.084-0.752-0.168-1.064-0.275c-0.31-0.106-0.553-0.232-0.668-0.404c-0.113-0.168-0.03-0.296,0.15-0.4   c0.177-0.107,0.455-0.191,0.729-0.277c0.276-0.086,0.551-0.17,0.728-0.275c0.174-0.104,0.254-0.229,0.138-0.393   c-0.116-0.162-0.292-0.285-0.498-0.386c-0.205-0.101-0.441-0.181-0.677-0.259c-0.234-0.08-0.467-0.159-0.67-0.258   c-0.199-0.099-0.371-0.219-0.48-0.376c-0.108-0.157-0.215-0.276-0.32-0.374c-0.105-0.096-0.211-0.174-0.316-0.252   c-0.104-0.076-0.209-0.152-0.313-0.25c-0.105-0.095-0.21-0.209-0.313-0.361c-0.104-0.152-0.055-0.267,0.072-0.361   c0.123-0.096,0.326-0.173,0.527-0.248c0.199-0.077,0.4-0.153,0.523-0.247c0.123-0.094,0.17-0.206,0.064-0.352   c-0.104-0.146-0.265-0.256-0.452-0.348c-0.189-0.09-0.405-0.162-0.62-0.232c-0.216-0.072-0.43-0.143-0.615-0.232   c-0.186-0.089-0.342-0.196-0.44-0.338c-0.099-0.143-0.247-0.248-0.421-0.336c-0.171-0.088-0.369-0.156-0.566-0.225   c-0.195-0.07-0.393-0.139-0.563-0.225c-0.169-0.086-0.313-0.189-0.405-0.326c-0.093-0.138-0.015-0.24,0.151-0.326   c0.165-0.086,0.414-0.156,0.662-0.227c0.25-0.068,0.496-0.137,0.658-0.223c0.162-0.085,0.238-0.186,0.142-0.32   c-0.093-0.131-0.316-0.229-0.601-0.311c-0.286-0.08-0.635-0.145-0.986-0.207c-0.346-0.064-0.693-0.129-0.975-0.209   c-0.282-0.08-0.498-0.176-0.586-0.305c-0.085-0.129-0.102-0.225-0.083-0.306c0.019-0.079,0.072-0.144,0.126-0.206   c0.055-0.064,0.107-0.128,0.126-0.207c0.02-0.08,0.004-0.174-0.081-0.298c-0.086-0.124-0.204-0.217-0.339-0.294   c-0.134-0.076-0.284-0.138-0.433-0.199c-0.148-0.06-0.299-0.121-0.433-0.197c-0.131-0.075-0.245-0.166-0.327-0.287   c-0.082-0.121,0.014-0.212,0.193-0.287c0.178-0.076,0.445-0.138,0.711-0.199c0.266-0.061,0.53-0.121,0.708-0.196   c0.177-0.075,0.266-0.163,0.183-0.28c-0.082-0.117-0.235-0.204-0.42-0.275c-0.184-0.072-0.404-0.129-0.624-0.186   c-0.218-0.058-0.437-0.113-0.618-0.185c-0.184-0.071-0.33-0.157-0.408-0.271c-0.078-0.112-0.111-0.196-0.12-0.268   c-0.011-0.07,0.002-0.125,0.013-0.183c0.013-0.056,0.025-0.111,0.015-0.182c-0.009-0.07-0.042-0.153-0.118-0.263   c-0.076-0.109-0.222-0.191-0.401-0.26c-0.181-0.066-0.394-0.12-0.607-0.174c-0.214-0.053-0.425-0.107-0.602-0.172   c-0.177-0.068-0.318-0.148-0.392-0.255c-0.07-0.106,0.031-0.201,0.202-0.286c0.171-0.084,0.413-0.16,0.62-0.23   c0.207-0.072,0.383-0.141,0.426-0.208c0.039-0.067-0.051-0.136-0.377-0.208c-0.074-0.016-0.143-0.029-0.209-0.041   c-0.067-0.01-0.131-0.02-0.195-0.025c-0.061-0.008-0.121-0.012-0.18-0.016c-0.06-0.004-0.115-0.005-0.172-0.005   c-0.191,0.001-0.369,0.02-0.545,0.05c-0.177,0.029-0.352,0.068-0.54,0.107c-0.189,0.039-0.392,0.078-0.622,0.107   c-0.23,0.03-0.488,0.051-0.788,0.052c-0.386,0.002-0.69-0.023-0.958-0.063c-0.266-0.038-0.49-0.092-0.716-0.145   c-0.226-0.053-0.45-0.106-0.714-0.145c-0.264-0.039-0.569-0.064-0.953-0.063c-0.383,0.001-0.654,0.027-0.874,0.066   c-0.218,0.037-0.382,0.088-0.546,0.137c-0.164,0.051-0.33,0.102-0.549,0.139c-0.223,0.039-0.496,0.064-0.883,0.067   c-0.385,0.001-0.67,0.01-0.906,0.02c-0.234,0.01-0.422,0.025-0.607,0.039c-0.188,0.012-0.374,0.025-0.61,0.037   s-0.521,0.02-0.909,0.021c-0.385,0.003-0.672,0.009-0.91,0.015c-0.238,0.008-0.429,0.016-0.617,0.024   c-0.19,0.009-0.381,0.019-0.618,0.024c-0.238,0.008-0.526,0.014-0.913,0.016c-0.27,0.002-0.49-0.008-0.672-0.023   c-0.182-0.016-0.325-0.035-0.447-0.057c-0.121-0.02-0.222-0.041-0.313-0.057c-0.093-0.016-0.178-0.025-0.273-0.025   c-0.042,0-0.081,0.003-0.128,0.008c-0.043,0.004-0.09,0.01-0.143,0.021c-0.051,0.008-0.105,0.021-0.166,0.037   c-0.062,0.014-0.127,0.033-0.197,0.056c-0.248,0.075-0.449,0.128-0.607,0.171c-0.16,0.043-0.277,0.074-0.36,0.109   c-0.081,0.035-0.127,0.074-0.144,0.131c-0.017,0.058-0.002,0.133,0.037,0.24c0.037,0.107,0.086,0.189,0.137,0.256   c0.05,0.068,0.104,0.123,0.16,0.176c0.055,0.055,0.109,0.109,0.162,0.178c0.051,0.068,0.1,0.15,0.141,0.261   c0.039,0.111,0.104,0.194,0.178,0.265c0.074,0.069,0.162,0.125,0.247,0.181c0.087,0.056,0.175,0.112,0.251,0.183   c0.076,0.07,0.141,0.154,0.184,0.268c0.042,0.114-0.016,0.201-0.126,0.273c-0.106,0.072-0.267,0.132-0.427,0.189   c-0.16,0.06-0.319,0.118-0.431,0.191c-0.108,0.074-0.169,0.162-0.13,0.279c0.041,0.117,0.227,0.205,0.48,0.277   c0.256,0.074,0.584,0.131,0.911,0.189c0.329,0.058,0.657,0.115,0.917,0.189c0.258,0.074,0.449,0.164,0.496,0.285   c0.046,0.121,0.01,0.213-0.07,0.289c-0.08,0.077-0.201,0.139-0.326,0.201c-0.123,0.063-0.244,0.125-0.326,0.203   c-0.08,0.078-0.12,0.172-0.072,0.297c0.045,0.125,0.11,0.219,0.184,0.297c0.077,0.079,0.16,0.143,0.245,0.205   c0.086,0.063,0.172,0.126,0.248,0.207c0.076,0.078,0.143,0.176,0.192,0.303c0.049,0.131,0.021,0.227-0.04,0.31   c-0.064,0.083-0.164,0.148-0.264,0.216c-0.102,0.065-0.203,0.131-0.266,0.215c-0.065,0.084-0.091,0.184-0.043,0.315   c0.047,0.134,0.041,0.235,0.006,0.319c-0.033,0.084-0.096,0.152-0.156,0.221c-0.063,0.068-0.126,0.137-0.16,0.223   c-0.035,0.086-0.045,0.188,0.005,0.326c0.05,0.139,0.226,0.241,0.466,0.326c0.242,0.086,0.547,0.154,0.852,0.225   c0.308,0.068,0.615,0.137,0.859,0.223c0.246,0.089,0.428,0.193,0.482,0.336c0.055,0.145,0.111,0.25,0.168,0.34   c0.057,0.09,0.117,0.162,0.176,0.234c0.058,0.072,0.117,0.146,0.176,0.236c0.058,0.092,0.116,0.201,0.174,0.348   c0.057,0.148-0.036,0.26-0.205,0.354c-0.168,0.094-0.414,0.17-0.659,0.247c-0.247,0.075-0.493,0.152-0.665,0.248   c-0.172,0.097-0.27,0.21-0.215,0.363c0.057,0.153,0.059,0.269,0.035,0.364c-0.021,0.098-0.07,0.175-0.119,0.254   c-0.049,0.077-0.098,0.156-0.121,0.254c-0.023,0.098-0.02,0.217,0.033,0.376c0.058,0.157,0.239,0.276,0.488,0.375   c0.247,0.101,0.56,0.179,0.873,0.257c0.313,0.08,0.629,0.158,0.881,0.259c0.252,0.101,0.443,0.223,0.503,0.386   c0.063,0.166,0.048,0.289-0.009,0.393c-0.055,0.104-0.15,0.189-0.247,0.273c-0.097,0.084-0.191,0.168-0.249,0.274   c-0.057,0.106-0.074,0.233-0.014,0.403c0.064,0.17,0.154,0.299,0.259,0.406c0.107,0.107,0.226,0.193,0.347,0.279   c0.121,0.086,0.242,0.173,0.348,0.281c0.107,0.109,0.201,0.24,0.27,0.418c0.064,0.177,0.139,0.311,0.221,0.422   c0.078,0.111,0.164,0.201,0.25,0.291c0.085,0.09,0.168,0.18,0.25,0.293c0.082,0.113,0.16,0.25,0.229,0.434   c0.071,0.184-0.003,0.323-0.146,0.44c-0.145,0.117-0.359,0.212-0.576,0.308c-0.217,0.094-0.435,0.189-0.58,0.309   c-0.146,0.119-0.223,0.262-0.154,0.453c0.066,0.191,0.15,0.336,0.243,0.455c0.093,0.121,0.193,0.219,0.293,0.314   c0.102,0.098,0.204,0.195,0.296,0.317c0.095,0.122,0.182,0.271,0.253,0.469c0.071,0.198,0.259,0.349,0.502,0.472   c0.245,0.125,0.549,0.224,0.853,0.322c0.305,0.102,0.61,0.202,0.859,0.328c0.25,0.126,0.443,0.279,0.523,0.486   c0.08,0.207,0.07,0.364,0.014,0.496c-0.055,0.131-0.156,0.237-0.256,0.344c-0.102,0.106-0.203,0.213-0.26,0.348   c-0.059,0.133-0.069,0.294,0.012,0.51c0.081,0.217,0.077,0.38,0.03,0.516c-0.046,0.139-0.138,0.248-0.226,0.359   c-0.091,0.11-0.182,0.222-0.229,0.361c-0.049,0.141-0.055,0.307,0.027,0.531c0.082,0.227,0.271,0.396,0.518,0.537   c0.247,0.141,0.551,0.255,0.852,0.369c0.305,0.113,0.607,0.227,0.86,0.371c0.251,0.145,0.45,0.318,0.54,0.552   c0.09,0.235,0.115,0.411,0.109,0.56c-0.006,0.15-0.047,0.269-0.086,0.39c-0.042,0.121-0.08,0.24-0.088,0.393   c-0.006,0.152,0.02,0.335,0.111,0.58c0.093,0.246,0.176,0.432,0.256,0.587c0.08,0.155,0.154,0.28,0.23,0.406   c0.076,0.126,0.151,0.252,0.232,0.409c0.082,0.158,0.167,0.35,0.265,0.605c0.1,0.258,0.206,0.453,0.318,0.615   c0.111,0.162,0.229,0.293,0.348,0.424c0.115,0.132,0.236,0.263,0.351,0.428c0.114,0.166,0.226,0.366,0.329,0.635   c0.104,0.269-0.029,0.473-0.283,0.644c-0.255,0.173-0.631,0.311-1.008,0.452c-0.375,0.14-0.756,0.279-1.016,0.455   c-0.26,0.176-0.401,0.387-0.303,0.668c0.098,0.283,0.178,0.496,0.246,0.674c0.069,0.181,0.128,0.324,0.188,0.468   c0.059,0.145,0.118,0.29,0.189,0.472c0.071,0.184,0.152,0.404,0.256,0.699c0.102,0.295,0.285,0.519,0.507,0.705   C235.132,177.797,235.396,177.947,235.66,178.098z"/><path d="M110.371,218.808c0.701-0.181,1.422-0.362,2.141-0.499c0.718-0.136,1.432-0.229,2.121-0.232   c0.922-0.004,1.682-0.119,2.359-0.285c0.676-0.168,1.266-0.389,1.854-0.609c0.585-0.219,1.17-0.438,1.835-0.603   c0.664-0.163,1.407-0.275,2.314-0.28c0.912-0.005,1.492,0.178,1.906,0.455c0.416,0.279,0.668,0.655,0.919,1.032   c0.255,0.38,0.51,0.763,0.931,1.048c0.428,0.287,1.02,0.479,1.948,0.475c0.929-0.006,1.677-0.113,2.335-0.273   c0.656-0.159,1.224-0.369,1.787-0.578c0.561-0.209,1.121-0.418,1.771-0.574c0.648-0.157,1.384-0.264,2.302-0.268   c0.918-0.006,1.555,0.106,2.049,0.277c0.498,0.172,0.855,0.402,1.216,0.635c0.36,0.23,0.72,0.464,1.225,0.639   c0.506,0.175,1.152,0.289,2.083,0.284c0.098-0.001,0.196-0.001,0.291-0.001c0.096,0,0.191,0,0.281-0.002   c0.094,0,0.184,0,0.273-0.001c0.09-0.001,0.178-0.001,0.264-0.001c0.73-0.004,1.363-0.012,1.947-0.047   c0.584-0.035,1.123-0.096,1.66-0.203c0.535-0.109,1.07-0.264,1.648-0.488c0.578-0.224,1.2-0.514,1.913-0.893   c0.806-0.43,1.317-0.794,1.63-1.138c0.314-0.341,0.431-0.663,0.445-1.009c0.016-0.345-0.067-0.713-0.156-1.148   c-0.09-0.431-0.186-0.927-0.195-1.53c-0.008-0.539-0.018-0.941-0.01-1.277c0.003-0.334,0.021-0.602,0.064-0.871   c0.047-0.268,0.113-0.537,0.219-0.871c0.105-0.333,0.247-0.729,0.436-1.254c0.188-0.52,0.464-0.906,0.782-1.228   c0.317-0.32,0.677-0.575,1.036-0.831c0.357-0.254,0.714-0.506,1.025-0.82c0.307-0.313,0.568-0.686,0.736-1.178   c0.168-0.487,0.135-0.85-0.001-1.149c-0.135-0.298-0.367-0.534-0.6-0.771c-0.233-0.234-0.462-0.469-0.593-0.762   c-0.131-0.29-0.16-0.637,0.007-1.098c0.169-0.458,0.35-0.799,0.534-1.083c0.186-0.282,0.379-0.507,0.569-0.732   c0.191-0.223,0.382-0.445,0.562-0.721c0.182-0.275,0.354-0.604,0.509-1.038c0.153-0.431,0.419-0.753,0.735-1.022   c0.316-0.266,0.688-0.478,1.059-0.691c0.367-0.211,0.734-0.421,1.045-0.682c0.307-0.26,0.559-0.57,0.695-0.98   c0.139-0.406-0.004-0.709-0.288-0.958c-0.28-0.248-0.7-0.445-1.118-0.642c-0.416-0.195-0.83-0.391-1.104-0.635   c-0.274-0.24-0.407-0.531-0.262-0.92c0.142-0.385,0.452-0.672,0.845-0.91c0.393-0.24,0.867-0.431,1.34-0.621   c0.471-0.189,0.939-0.377,1.323-0.611c0.382-0.233,0.677-0.512,0.802-0.877c0.125-0.364,0.037-0.633-0.154-0.857   c-0.188-0.224-0.482-0.4-0.776-0.576c-0.291-0.175-0.584-0.35-0.769-0.568c-0.184-0.219-0.266-0.48-0.137-0.826   c0.057-0.156,0.14-0.289,0.234-0.414c0.025-0.035,0.055-0.068,0.084-0.102c0.079-0.092,0.168-0.178,0.263-0.256   c0.019-0.014,0.03-0.033,0.05-0.047c0.01-0.008,0.021-0.014,0.032-0.021c0.122-0.093,0.253-0.177,0.39-0.256   c0.162-0.098,0.33-0.188,0.501-0.276c0.043-0.022,0.085-0.048,0.128-0.07c0.152-0.08,0.299-0.163,0.441-0.249   c0.06-0.037,0.115-0.078,0.174-0.115c0.056-0.039,0.118-0.074,0.171-0.114c0.059-0.047,0.104-0.105,0.159-0.157   c0.055-0.051,0.112-0.099,0.16-0.154c0.023-0.026,0.042-0.055,0.063-0.082c0.088-0.119,0.166-0.246,0.218-0.395   c0.114-0.326,0.238-0.568,0.366-0.771c0.131-0.202,0.267-0.363,0.4-0.523c0.135-0.16,0.268-0.318,0.395-0.518   c0.127-0.197,0.248-0.434,0.354-0.748c0.108-0.311,0.21-0.543,0.314-0.735c0.103-0.192,0.204-0.345,0.306-0.498   c0.1-0.151,0.201-0.305,0.301-0.493c0.101-0.188,0.203-0.412,0.303-0.711c0.1-0.296,0.183-0.518,0.258-0.701   c0.072-0.182,0.138-0.328,0.203-0.473c0.066-0.145,0.129-0.289,0.201-0.47c0.073-0.179,0.153-0.393,0.248-0.677   c0.097-0.282,0.137-0.492,0.15-0.666c0.016-0.174,0.002-0.313-0.009-0.451c-0.013-0.139-0.025-0.275-0.011-0.445   c0.014-0.172,0.055-0.375,0.148-0.645c0.093-0.27,0.165-0.47,0.229-0.638c0.063-0.166,0.118-0.298,0.173-0.43   c0.055-0.133,0.109-0.264,0.171-0.428c0.063-0.162,0.134-0.357,0.222-0.615c0.088-0.258,0.184-0.449,0.281-0.608   c0.098-0.159,0.2-0.286,0.303-0.413c0.1-0.127,0.201-0.252,0.297-0.408c0.098-0.156,0.189-0.342,0.271-0.589   c0.082-0.245-0.051-0.429-0.291-0.579c-0.24-0.15-0.588-0.269-0.933-0.389c-0.343-0.117-0.689-0.234-0.923-0.383   c-0.234-0.146-0.359-0.324-0.273-0.561c0.085-0.235,0.156-0.412,0.22-0.557c0.061-0.146,0.116-0.261,0.169-0.377   c0.055-0.114,0.106-0.229,0.169-0.372c0.061-0.142,0.129-0.312,0.213-0.538c0.082-0.225,0.302-0.394,0.587-0.535   c0.285-0.141,0.636-0.252,0.987-0.364c0.35-0.112,0.697-0.225,0.979-0.362c0.278-0.139,0.488-0.303,0.563-0.52   c0.074-0.217,0.02-0.377-0.097-0.51c-0.116-0.132-0.297-0.237-0.474-0.343c-0.179-0.105-0.357-0.209-0.471-0.34   c-0.115-0.13-0.166-0.286-0.09-0.495c0.074-0.207,0.219-0.361,0.395-0.49c0.176-0.129,0.385-0.232,0.594-0.336   c0.209-0.102,0.416-0.203,0.59-0.331c0.172-0.126,0.311-0.277,0.379-0.478c0.07-0.199,0.055-0.347,0-0.471   c-0.053-0.121-0.148-0.219-0.243-0.316c-0.095-0.096-0.188-0.193-0.241-0.314c-0.053-0.12-0.065-0.265,0.002-0.456   c0.068-0.19,0.112-0.334,0.145-0.451c0.031-0.118,0.051-0.212,0.07-0.306c0.02-0.094,0.039-0.186,0.072-0.305   c0.03-0.115,0.074-0.254,0.139-0.439c0.066-0.184,0.051-0.321-0.004-0.434c-0.057-0.114-0.153-0.203-0.25-0.293   c-0.096-0.09-0.191-0.18-0.245-0.291c-0.054-0.111-0.069-0.246-0.003-0.424c0.066-0.176,0.146-0.309,0.235-0.42   c0.087-0.107,0.184-0.196,0.28-0.283c0.094-0.088,0.19-0.174,0.275-0.283c0.088-0.107,0.166-0.237,0.23-0.408   c0.061-0.17,0.141-0.297,0.231-0.402c0.089-0.105,0.189-0.19,0.287-0.275c0.101-0.084,0.198-0.168,0.288-0.272   c0.088-0.104,0.166-0.228,0.227-0.394c0.058-0.164,0.035-0.286-0.031-0.387c-0.065-0.102-0.17-0.182-0.273-0.262   c-0.107-0.081-0.211-0.16-0.275-0.261c-0.064-0.099-0.087-0.219-0.027-0.378c0.059-0.158,0.125-0.277,0.195-0.377   c0.068-0.098,0.141-0.176,0.214-0.254c0.073-0.078,0.144-0.155,0.213-0.253c0.067-0.095,0.132-0.212,0.188-0.364   c0.057-0.152,0.219-0.268,0.435-0.364c0.212-0.095,0.481-0.173,0.749-0.249c0.265-0.076,0.53-0.154,0.741-0.248   c0.213-0.094,0.369-0.207,0.42-0.355c0.052-0.147,0.105-0.257,0.161-0.35c0.057-0.091,0.117-0.164,0.175-0.237   c0.058-0.071,0.118-0.146,0.173-0.235c0.057-0.091,0.109-0.199,0.158-0.342c0.047-0.143-0.021-0.25-0.152-0.338   c-0.127-0.086-0.314-0.156-0.5-0.225c-0.188-0.07-0.373-0.139-0.5-0.225c-0.125-0.086-0.194-0.189-0.143-0.328   c0.048-0.137,0.121-0.24,0.205-0.326c0.082-0.086,0.176-0.154,0.27-0.223c0.094-0.069,0.188-0.137,0.27-0.223   c0.082-0.084,0.152-0.186,0.2-0.319c0.045-0.133,0.001-0.231-0.091-0.313c-0.091-0.082-0.229-0.146-0.365-0.212   c-0.139-0.064-0.273-0.129-0.363-0.21c-0.091-0.082-0.135-0.18-0.086-0.309c0.049-0.129,0.063-0.227,0.06-0.305   c-0.001-0.081-0.02-0.145-0.038-0.207c-0.018-0.064-0.038-0.127-0.039-0.206c-0.002-0.079,0.013-0.173,0.059-0.298   c0.048-0.125,0.184-0.219,0.365-0.299c0.182-0.078,0.407-0.141,0.633-0.204c0.225-0.061,0.448-0.125,0.628-0.202   c0.178-0.078,0.311-0.17,0.356-0.291c0.041-0.122,0.068-0.213,0.088-0.289c0.02-0.073,0.033-0.135,0.046-0.193   c0.013-0.059,0.025-0.119,0.046-0.193c0.018-0.074,0.045-0.162,0.087-0.28c0.042-0.117,0.069-0.205,0.089-0.278   c0.018-0.072,0.033-0.131,0.045-0.189c0.012-0.058,0.024-0.115,0.045-0.188c0.019-0.072,0.047-0.158,0.086-0.273   c0.041-0.112,0.051-0.197,0.046-0.269c-0.005-0.069-0.024-0.126-0.046-0.183c-0.02-0.055-0.039-0.11-0.043-0.181   c-0.006-0.069,0.004-0.153,0.045-0.264c0.039-0.11,0.002-0.192-0.072-0.261c-0.076-0.068-0.189-0.121-0.302-0.176   c-0.112-0.053-0.224-0.107-0.298-0.174c-0.074-0.068-0.109-0.148-0.069-0.258c0.042-0.105,0.173-0.184,0.334-0.243   c0.16-0.06,0.346-0.103,0.499-0.142c0.15-0.039,0.266-0.072,0.281-0.115c0.013-0.044-0.071-0.096-0.32-0.169   c-0.09-0.027-0.172-0.05-0.246-0.067c-0.073-0.02-0.141-0.033-0.202-0.044c-0.063-0.011-0.118-0.018-0.171-0.023   c-0.053-0.005-0.104-0.005-0.154-0.005c-0.084,0-0.166,0.006-0.256,0.016c-0.092,0.01-0.191,0.021-0.312,0.033   c-0.122,0.014-0.261,0.026-0.431,0.035c-0.171,0.01-0.371,0.018-0.612,0.018c-0.386,0.002-0.681,0.017-0.929,0.037   c-0.25,0.021-0.455,0.048-0.658,0.073c-0.205,0.027-0.41,0.054-0.662,0.074c-0.25,0.021-0.547,0.034-0.936,0.036   c-0.385,0.003-0.658-0.034-0.87-0.093c-0.213-0.057-0.369-0.133-0.524-0.209c-0.153-0.076-0.307-0.152-0.517-0.209   c-0.211-0.056-0.479-0.094-0.862-0.092c-0.383,0.003-0.682,0.031-0.943,0.07c-0.26,0.041-0.479,0.094-0.699,0.146   s-0.441,0.105-0.703,0.146s-0.564,0.068-0.951,0.07c-0.385,0.002-0.672,0-0.91-0.004s-0.426-0.01-0.613-0.016   c-0.189-0.006-0.381-0.012-0.618-0.016c-0.239-0.004-0.526-0.007-0.913-0.005c-0.271,0.002-0.498-0.008-0.695-0.022   c-0.199-0.016-0.365-0.035-0.518-0.056c-0.152-0.021-0.291-0.042-0.425-0.058c-0.135-0.015-0.268-0.024-0.412-0.023   c-0.061,0-0.125,0.002-0.189,0.008c-0.066,0.004-0.137,0.011-0.211,0.02c-0.072,0.01-0.152,0.023-0.234,0.038   c-0.084,0.016-0.174,0.034-0.268,0.056c-0.325,0.077-0.459,0.141-0.481,0.197c-0.02,0.059,0.071,0.111,0.194,0.169   c0.123,0.058,0.279,0.118,0.387,0.19c0.108,0.074,0.166,0.16,0.096,0.268c-0.072,0.109-0.166,0.19-0.27,0.26   c-0.104,0.068-0.219,0.123-0.332,0.178c-0.115,0.057-0.229,0.111-0.334,0.18c-0.106,0.069-0.201,0.152-0.275,0.264   c-0.074,0.111-0.193,0.195-0.331,0.266c-0.136,0.072-0.296,0.129-0.456,0.186c-0.158,0.057-0.318,0.115-0.458,0.186   c-0.14,0.072-0.26,0.158-0.338,0.271c-0.08,0.115-0.073,0.201-0.023,0.273c0.049,0.07,0.142,0.129,0.233,0.186   c0.094,0.059,0.186,0.115,0.236,0.188c0.051,0.072,0.058,0.16-0.021,0.278c-0.08,0.118-0.212,0.208-0.371,0.282   c-0.157,0.076-0.343,0.137-0.528,0.197c-0.185,0.06-0.37,0.121-0.53,0.197c-0.162,0.077-0.297,0.168-0.381,0.289   c-0.084,0.121-0.1,0.213-0.08,0.29c0.019,0.076,0.073,0.138,0.129,0.198c0.055,0.063,0.108,0.123,0.129,0.201   c0.02,0.077,0.005,0.17-0.08,0.297c-0.086,0.125-0.184,0.221-0.287,0.3c-0.104,0.079-0.215,0.144-0.326,0.208   c-0.11,0.064-0.221,0.128-0.328,0.209c-0.105,0.08-0.206,0.178-0.295,0.307c-0.089,0.131-0.138,0.228-0.169,0.311   c-0.028,0.082-0.04,0.146-0.049,0.213c-0.011,0.066-0.022,0.133-0.051,0.215c-0.031,0.082-0.081,0.183-0.173,0.316   c-0.092,0.135-0.139,0.234-0.162,0.32c-0.021,0.084-0.023,0.152-0.023,0.22c0,0.068-0.002,0.136-0.025,0.221   c-0.023,0.086-0.07,0.189-0.166,0.327c-0.092,0.139-0.154,0.244-0.195,0.332c-0.044,0.086-0.069,0.158-0.095,0.227   c-0.027,0.07-0.053,0.142-0.097,0.23c-0.043,0.088-0.105,0.195-0.201,0.339c-0.096,0.143-0.203,0.251-0.314,0.343   c-0.111,0.09-0.227,0.164-0.346,0.236c-0.116,0.074-0.234,0.147-0.347,0.239c-0.114,0.093-0.224,0.202-0.324,0.351   c-0.101,0.148-0.224,0.262-0.357,0.355c-0.135,0.094-0.278,0.169-0.423,0.245c-0.148,0.076-0.293,0.152-0.43,0.247   c-0.135,0.095-0.262,0.21-0.367,0.364c-0.107,0.154-0.043,0.268,0.107,0.364c0.15,0.097,0.385,0.173,0.623,0.249   c0.238,0.076,0.477,0.154,0.629,0.251c0.152,0.097,0.221,0.216,0.117,0.374c-0.105,0.16-0.172,0.279-0.217,0.38   c-0.045,0.101-0.069,0.183-0.095,0.262c-0.026,0.081-0.05,0.162-0.095,0.265c-0.045,0.101-0.111,0.225-0.219,0.389   c-0.109,0.166-0.333,0.291-0.615,0.396c-0.281,0.105-0.623,0.191-0.963,0.277c-0.342,0.086-0.684,0.172-0.971,0.277   c-0.287,0.107-0.518,0.236-0.637,0.406c-0.117,0.172-0.089,0.301,0.018,0.408c0.104,0.107,0.283,0.192,0.461,0.279   c0.18,0.086,0.359,0.172,0.465,0.28c0.107,0.11,0.141,0.241,0.021,0.419c-0.115,0.178-0.232,0.313-0.346,0.425   c-0.115,0.112-0.227,0.204-0.341,0.294c-0.11,0.091-0.225,0.182-0.34,0.297c-0.116,0.113-0.235,0.252-0.358,0.436   c-0.123,0.185-0.158,0.323-0.145,0.441c0.012,0.117,0.07,0.21,0.129,0.303c0.059,0.094,0.116,0.188,0.129,0.306   c0.012,0.118-0.021,0.262-0.146,0.453c-0.126,0.192-0.301,0.337-0.5,0.46c-0.2,0.122-0.426,0.221-0.65,0.32   c-0.227,0.098-0.451,0.197-0.654,0.321c-0.205,0.124-0.386,0.273-0.519,0.474c-0.134,0.199-0.192,0.35-0.21,0.475   c-0.02,0.126,0.001,0.227,0.021,0.328c0.02,0.102,0.039,0.203,0.021,0.332c-0.021,0.127-0.078,0.281-0.217,0.49   c-0.137,0.207-0.314,0.365-0.508,0.498c-0.195,0.133-0.41,0.238-0.624,0.346c-0.216,0.107-0.431,0.215-0.63,0.35   c-0.199,0.135-0.381,0.297-0.527,0.512c-0.146,0.219-0.35,0.383-0.578,0.52c-0.23,0.138-0.491,0.249-0.749,0.361   c-0.26,0.111-0.521,0.224-0.757,0.364c-0.233,0.141-0.443,0.309-0.599,0.535c-0.159,0.227-0.126,0.397,0.003,0.54   c0.131,0.142,0.358,0.255,0.586,0.37c0.228,0.113,0.457,0.228,0.59,0.372c0.135,0.145,0.172,0.319,0.015,0.556   c-0.157,0.236-0.383,0.414-0.645,0.564c-0.262,0.15-0.557,0.27-0.854,0.393c-0.298,0.122-0.598,0.244-0.865,0.396   c-0.267,0.154-0.502,0.339-0.67,0.586c-0.172,0.247-0.137,0.433,0,0.588c0.135,0.155,0.376,0.279,0.614,0.404   c0.241,0.124,0.483,0.249,0.623,0.406c0.138,0.158,0.177,0.35,0.007,0.607c-0.17,0.26-0.405,0.455-0.674,0.619   c-0.27,0.165-0.572,0.299-0.876,0.432c-0.304,0.133-0.61,0.268-0.886,0.435c-0.273,0.168-0.52,0.37-0.701,0.64   c-0.182,0.271-0.25,0.475-0.264,0.645c-0.011,0.171,0.037,0.307,0.082,0.445c0.045,0.137,0.093,0.275,0.082,0.449   c-0.013,0.174-0.082,0.386-0.271,0.668c-0.188,0.285-0.381,0.5-0.576,0.68c-0.193,0.18-0.395,0.324-0.59,0.472   c-0.2,0.145-0.398,0.292-0.598,0.476c-0.201,0.185-0.4,0.406-0.6,0.703c-0.201,0.297-0.471,0.522-0.779,0.712   c-0.311,0.188-0.655,0.342-1.002,0.495c-0.348,0.154-0.696,0.309-1.011,0.502c-0.318,0.193-0.602,0.427-0.815,0.739   c-0.219,0.313-0.225,0.55-0.122,0.747c0.1,0.197,0.309,0.355,0.519,0.514c0.208,0.159,0.419,0.318,0.523,0.52   c0.103,0.202,0.102,0.445-0.117,0.773c-0.221,0.33-0.566,0.582-0.979,0.791c-0.413,0.211-0.89,0.381-1.366,0.552   c-0.48,0.171-0.963,0.343-1.381,0.558c-0.424,0.216-0.789,0.475-1.027,0.82c-0.24,0.347-0.215,0.607-0.053,0.824   c0.164,0.219,0.461,0.393,0.759,0.568c0.3,0.176,0.603,0.353,0.767,0.575c0.17,0.225,0.201,0.495-0.041,0.859   c-0.244,0.367-0.52,0.644-0.814,0.875c-0.295,0.233-0.607,0.421-0.922,0.608c-0.313,0.19-0.629,0.379-0.932,0.617   c-0.304,0.238-0.592,0.526-0.853,0.912c-0.263,0.389-0.464,0.682-0.634,0.926c-0.17,0.246-0.307,0.445-0.445,0.644   c-0.14,0.198-0.28,0.398-0.453,0.649c-0.174,0.253-0.383,0.557-0.66,0.965c-0.275,0.41-0.453,0.717-0.582,0.977   c-0.129,0.259-0.207,0.469-0.287,0.678c-0.08,0.21-0.16,0.421-0.291,0.687c-0.133,0.267-0.318,0.589-0.609,1.02   c-0.293,0.436-0.509,0.765-0.684,1.039c-0.178,0.278-0.316,0.5-0.451,0.723c-0.139,0.225-0.279,0.449-0.459,0.73   c-0.18,0.283-0.403,0.625-0.713,1.084c-0.311,0.463-0.45,0.809-0.505,1.1c-0.056,0.291-0.026,0.527,0.003,0.762   c0.031,0.236,0.063,0.475,0.006,0.773c-0.058,0.301-0.203,0.664-0.524,1.152c-0.323,0.49-0.587,0.859-0.817,1.17   c-0.235,0.313-0.438,0.563-0.643,0.814c-0.205,0.254-0.41,0.508-0.65,0.828c-0.24,0.32-0.516,0.707-0.859,1.229   c-0.348,0.523-0.684,0.917-1.014,1.25c-0.332,0.332-0.66,0.601-0.987,0.87c-0.331,0.27-0.663,0.544-1.005,0.884   c-0.342,0.344-0.696,0.758-1.068,1.313c-0.377,0.561-1.039,1.089-1.803,1.593c-0.287,0.189-0.595,0.372-0.9,0.555v3.84   C109.15,219.124,109.75,218.968,110.371,218.808z"/><path d="M225.242,214.295c-0.418-0.568-0.906-1.199-1.408-1.918c-0.369-0.523-0.779-0.902-1.193-1.211   c-0.412-0.309-0.829-0.546-1.213-0.787c-0.379-0.239-0.725-0.48-0.995-0.795c-0.269-0.313-0.464-0.696-0.542-1.218   c-0.08-0.518-0.092-0.904-0.074-1.225c0.018-0.319,0.067-0.571,0.116-0.825c0.05-0.252,0.099-0.504,0.114-0.816   c0.018-0.311,0.004-0.682-0.074-1.174c-0.074-0.485-0.23-0.848-0.42-1.147c-0.189-0.297-0.418-0.533-0.645-0.769   c-0.226-0.235-0.451-0.469-0.639-0.761c-0.184-0.291-0.328-0.638-0.396-1.097c-0.065-0.457,0.008-0.798,0.15-1.082   c0.141-0.281,0.352-0.506,0.559-0.73c0.209-0.223,0.416-0.445,0.553-0.721c0.139-0.275,0.205-0.604,0.137-1.035   c-0.07-0.431-0.186-0.751-0.322-1.018c-0.138-0.264-0.298-0.473-0.458-0.683c-0.157-0.208-0.316-0.415-0.45-0.675   c-0.135-0.258-0.242-0.566-0.306-0.975c-0.062-0.406-0.007-0.709,0.102-0.961c0.109-0.25,0.276-0.449,0.441-0.648   c0.166-0.199,0.329-0.396,0.437-0.645c0.107-0.242,0.156-0.535,0.091-0.922c-0.064-0.383,0.011-0.67,0.151-0.906   c0.139-0.237,0.347-0.427,0.554-0.615c0.208-0.188,0.411-0.377,0.549-0.608c0.137-0.232,0.204-0.509,0.137-0.874   c-0.065-0.362-0.308-0.631-0.635-0.855c-0.327-0.221-0.739-0.396-1.149-0.572c-0.41-0.176-0.818-0.35-1.139-0.568   c-0.316-0.216-0.545-0.477-0.6-0.822c-0.053-0.344,0.039-0.601,0.198-0.815c0.16-0.213,0.391-0.384,0.622-0.554   c0.229-0.169,0.456-0.336,0.613-0.547c0.155-0.208,0.24-0.457,0.183-0.785c-0.03-0.173-0.111-0.321-0.226-0.454   c-0.085-0.098-0.189-0.185-0.307-0.267c-0.015-0.01-0.025-0.02-0.04-0.027c-0.009-0.007-0.015-0.014-0.024-0.019   c-0.04-0.024-0.09-0.046-0.131-0.069c-0.113-0.064-0.229-0.129-0.355-0.186c-0.069-0.032-0.14-0.062-0.211-0.091   c-0.134-0.057-0.267-0.113-0.403-0.168c-0.014-0.006-0.025-0.012-0.039-0.018c-0.13-0.051-0.256-0.104-0.38-0.158   c-0.077-0.032-0.153-0.066-0.229-0.103c-0.101-0.047-0.194-0.099-0.285-0.15c-0.05-0.028-0.109-0.051-0.155-0.081   c-0.031-0.02-0.055-0.041-0.082-0.061c-0.017-0.012-0.033-0.023-0.049-0.035c-0.105-0.081-0.199-0.17-0.27-0.266   c-0.01-0.014-0.018-0.028-0.026-0.043c-0.067-0.103-0.12-0.213-0.14-0.339c-0.045-0.31,0.039-0.542,0.186-0.735   c0.146-0.192,0.355-0.346,0.564-0.499c0.208-0.153,0.416-0.306,0.559-0.494c0.143-0.189,0.221-0.413,0.172-0.71   c-0.049-0.297-0.156-0.516-0.293-0.698c-0.137-0.181-0.301-0.326-0.467-0.47c-0.166-0.145-0.331-0.287-0.463-0.466   c-0.135-0.179-0.238-0.391-0.281-0.675c-0.043-0.281-0.025-0.491,0.022-0.666c0.049-0.174,0.128-0.312,0.204-0.451   c0.078-0.139,0.156-0.275,0.201-0.447c0.047-0.171,0.063-0.375,0.02-0.645c-0.043-0.267,0.039-0.469,0.184-0.637   c0.143-0.166,0.351-0.3,0.557-0.432c0.203-0.133,0.406-0.266,0.551-0.43c0.14-0.164,0.218-0.358,0.17-0.615   c-0.021-0.117-0.076-0.215-0.143-0.309c-0.013-0.016-0.024-0.035-0.038-0.052c-0.074-0.085-0.163-0.161-0.267-0.231   c-0.007-0.004-0.011-0.009-0.017-0.014c-0.014-0.01-0.033-0.016-0.047-0.025c-0.234-0.144-0.518-0.263-0.805-0.379   c-0.307-0.125-0.607-0.248-0.846-0.404c-0.236-0.153-0.404-0.338-0.443-0.584c-0.038-0.246,0.09-0.43,0.296-0.584   c0.208-0.151,0.497-0.273,0.784-0.395c0.287-0.123,0.572-0.244,0.775-0.395c0.203-0.148,0.324-0.328,0.28-0.564   c-0.044-0.232-0.245-0.407-0.527-0.551c-0.28-0.145-0.64-0.258-0.997-0.371c-0.357-0.112-0.713-0.225-0.99-0.365   c-0.273-0.141-0.466-0.31-0.502-0.535c-0.033-0.224,0.014-0.392,0.102-0.531c0.089-0.14,0.218-0.25,0.347-0.361   c0.128-0.111,0.257-0.223,0.342-0.36c0.085-0.136,0.131-0.3,0.097-0.517c-0.037-0.215-0.063-0.375-0.082-0.51   c-0.02-0.133-0.037-0.238-0.051-0.345c-0.016-0.104-0.031-0.211-0.051-0.342c-0.02-0.13-0.046-0.288-0.08-0.495   c-0.035-0.205-0.082-0.359-0.135-0.488c-0.055-0.128-0.114-0.23-0.174-0.33c-0.061-0.102-0.121-0.202-0.174-0.328   c-0.052-0.125-0.1-0.275-0.133-0.475c-0.031-0.198-0.059-0.347-0.085-0.469c-0.025-0.123-0.05-0.221-0.072-0.318   c-0.026-0.098-0.05-0.195-0.075-0.315c-0.025-0.121-0.053-0.265-0.082-0.457c-0.029-0.19-0.114-0.331-0.219-0.448   c-0.107-0.117-0.24-0.21-0.373-0.303c-0.131-0.094-0.264-0.186-0.369-0.303c-0.105-0.115-0.184-0.253-0.211-0.438   c-0.026-0.184-0.038-0.32-0.038-0.434c0-0.113,0.008-0.205,0.017-0.295c0.008-0.09,0.015-0.181,0.015-0.292   c0-0.112-0.009-0.245-0.036-0.423c-0.027-0.178-0.004-0.309,0.043-0.419c0.047-0.108,0.119-0.196,0.191-0.284   c0.072-0.086,0.144-0.174,0.19-0.282c0.046-0.107,0.067-0.236,0.04-0.407c-0.027-0.17,0.059-0.297,0.197-0.402   c0.139-0.105,0.332-0.191,0.527-0.275c0.191-0.084,0.387-0.17,0.522-0.274c0.136-0.105,0.216-0.228,0.187-0.394   c-0.029-0.163-0.117-0.285-0.236-0.387c-0.115-0.101-0.262-0.181-0.406-0.26c-0.146-0.08-0.291-0.16-0.405-0.26   c-0.114-0.099-0.2-0.219-0.227-0.377c-0.027-0.158-0.135-0.276-0.283-0.373c-0.149-0.098-0.336-0.174-0.525-0.252   c-0.187-0.076-0.375-0.152-0.521-0.248c-0.146-0.096-0.252-0.21-0.273-0.362c-0.021-0.153,0.111-0.268,0.322-0.363   c0.213-0.095,0.502-0.173,0.789-0.25c0.287-0.076,0.574-0.153,0.783-0.247c0.207-0.094,0.336-0.207,0.309-0.355   c-0.027-0.146-0.127-0.256-0.264-0.348c-0.135-0.09-0.307-0.162-0.478-0.234c-0.171-0.07-0.342-0.143-0.474-0.231   c-0.135-0.09-0.231-0.197-0.256-0.34c-0.024-0.142,0.051-0.249,0.166-0.339c0.118-0.088,0.283-0.16,0.447-0.23   c0.166-0.071,0.329-0.141,0.445-0.229c0.114-0.088,0.184-0.191,0.158-0.33c-0.025-0.138-0.115-0.239-0.236-0.324   c-0.124-0.085-0.277-0.152-0.432-0.22c-0.152-0.067-0.305-0.134-0.426-0.218c-0.119-0.084-0.206-0.184-0.228-0.316   c-0.024-0.133,0-0.233,0.049-0.315c0.048-0.082,0.116-0.147,0.186-0.214c0.071-0.066,0.141-0.133,0.188-0.215   c0.048-0.082,0.071-0.18,0.048-0.309c-0.024-0.129-0.069-0.225-0.126-0.305c-0.057-0.08-0.123-0.143-0.192-0.205   c-0.067-0.063-0.134-0.127-0.19-0.205c-0.055-0.079-0.101-0.172-0.122-0.297c-0.02-0.125-0.052-0.219-0.091-0.297   c-0.038-0.076-0.082-0.138-0.125-0.199c-0.044-0.063-0.088-0.123-0.126-0.199c-0.036-0.076-0.069-0.168-0.089-0.289   c-0.02-0.121-0.033-0.211-0.042-0.287c-0.009-0.073-0.013-0.133-0.021-0.193c-0.003-0.059-0.009-0.118-0.018-0.192   c-0.009-0.073-0.021-0.163-0.042-0.28c-0.02-0.116,0.037-0.205,0.13-0.277c0.092-0.074,0.223-0.133,0.352-0.191   c0.131-0.059,0.26-0.117,0.352-0.189c0.092-0.072,0.145-0.158,0.125-0.272c-0.021-0.114-0.189-0.197-0.428-0.267   c-0.237-0.068-0.549-0.123-0.857-0.178c-0.311-0.055-0.619-0.109-0.854-0.178c-0.236-0.068-0.396-0.15-0.413-0.262   c-0.017-0.109,0.114-0.191,0.317-0.263c0.205-0.069,0.48-0.124,0.758-0.181c0.273-0.057,0.548-0.111,0.749-0.18   c0.2-0.07,0.328-0.151,0.308-0.26c-0.02-0.106-0.037-0.193-0.076-0.268c-0.035-0.073-0.088-0.135-0.174-0.193   c-0.086-0.059-0.206-0.111-0.377-0.169c-0.171-0.057-0.391-0.118-0.678-0.191c-0.059-0.015-0.115-0.027-0.17-0.038   c-0.054-0.01-0.105-0.018-0.157-0.025c-0.052-0.006-0.1-0.011-0.147-0.014c-0.047-0.004-0.095-0.004-0.14-0.004   c-0.173,0-0.331,0.023-0.491,0.059c-0.158,0.032-0.317,0.077-0.494,0.122c-0.178,0.046-0.37,0.091-0.596,0.126   c-0.227,0.034-0.485,0.057-0.793,0.059c-0.387,0.003-0.682-0.033-0.93-0.086c-0.246-0.053-0.445-0.125-0.646-0.197   c-0.198-0.07-0.395-0.142-0.64-0.195c-0.242-0.053-0.533-0.086-0.914-0.085c-0.382,0.003-0.669,0.034-0.905,0.081   c-0.237,0.047-0.427,0.109-0.618,0.171c-0.191,0.062-0.381,0.125-0.623,0.173c-0.24,0.047-0.529,0.079-0.916,0.081   c-0.387,0.003-0.676-0.015-0.916-0.043c-0.241-0.026-0.433-0.064-0.623-0.103c-0.192-0.037-0.384-0.072-0.623-0.102   c-0.239-0.026-0.525-0.043-0.91-0.043c-0.383,0.004-0.67-0.005-0.909-0.02c-0.238-0.014-0.427-0.033-0.618-0.052   c-0.191-0.021-0.381-0.038-0.618-0.052c-0.237-0.015-0.525-0.023-0.906-0.021c-0.028,0-0.056,0-0.081,0s-0.053,0.002-0.078,0.002   c-0.025,0-0.051,0-0.074,0c-0.025,0-0.051,0-0.074,0c-0.322,0.002-0.59,0.004-0.83,0.011c-0.238,0.007-0.447,0.017-0.648,0.036   c-0.202,0.019-0.395,0.046-0.604,0.086c-0.206,0.041-0.431,0.092-0.692,0.162c-0.287,0.076-0.408,0.141-0.425,0.2   c-0.018,0.06,0.064,0.114,0.18,0.173c0.116,0.06,0.267,0.122,0.385,0.197c0.118,0.074,0.202,0.162,0.188,0.27   c-0.017,0.107-0.003,0.188,0.023,0.256c0.027,0.068,0.069,0.122,0.111,0.176c0.044,0.055,0.085,0.109,0.112,0.18   c0.029,0.066,0.042,0.15,0.027,0.26c-0.016,0.111-0.123,0.196-0.277,0.268c-0.157,0.07-0.357,0.129-0.561,0.186   c-0.201,0.057-0.403,0.113-0.561,0.186c-0.157,0.072-0.269,0.158-0.288,0.271c-0.019,0.114-0.005,0.199,0.025,0.271   c0.031,0.072,0.078,0.129,0.128,0.188c0.047,0.058,0.094,0.115,0.125,0.188c0.031,0.074,0.045,0.16,0.027,0.279   c-0.018,0.117-0.021,0.206-0.017,0.279c0.005,0.075,0.019,0.135,0.033,0.194c0.014,0.06,0.026,0.12,0.032,0.194   c0.006,0.075,0.002,0.166-0.016,0.287c-0.02,0.121,0.034,0.213,0.123,0.289c0.088,0.074,0.213,0.137,0.34,0.198   c0.125,0.061,0.25,0.121,0.342,0.198c0.089,0.078,0.145,0.17,0.127,0.295c-0.019,0.127-0.04,0.221-0.064,0.3   c-0.024,0.078-0.05,0.143-0.075,0.206c-0.027,0.063-0.055,0.128-0.078,0.209c-0.023,0.08-0.045,0.176-0.065,0.305   c-0.019,0.131-0.019,0.229-0.012,0.31c0.008,0.081,0.025,0.146,0.042,0.212c0.017,0.066,0.032,0.132,0.042,0.215   c0.007,0.082,0.007,0.183-0.012,0.315c-0.019,0.134-0.108,0.235-0.232,0.319c-0.127,0.086-0.288,0.154-0.449,0.223   c-0.161,0.069-0.324,0.139-0.449,0.225c-0.129,0.086-0.221,0.189-0.242,0.328c-0.022,0.139-0.047,0.242-0.076,0.33   c-0.027,0.087-0.059,0.156-0.088,0.227c-0.03,0.071-0.06,0.143-0.088,0.23c-0.027,0.088-0.055,0.195-0.079,0.338   c-0.023,0.143-0.013,0.251,0.013,0.341c0.025,0.091,0.066,0.163,0.107,0.235c0.042,0.072,0.082,0.145,0.107,0.235   c0.025,0.093,0.037,0.202,0.013,0.35c-0.023,0.146-0.14,0.259-0.308,0.354c-0.167,0.094-0.383,0.17-0.6,0.245   c-0.216,0.077-0.435,0.153-0.604,0.249c-0.171,0.096-0.293,0.209-0.32,0.362c-0.026,0.154,0.004,0.27,0.064,0.366   c0.06,0.096,0.148,0.174,0.238,0.25c0.086,0.078,0.178,0.156,0.238,0.254c0.061,0.098,0.092,0.215,0.066,0.375   c-0.027,0.158-0.063,0.277-0.109,0.378c-0.043,0.101-0.094,0.182-0.143,0.263c-0.052,0.082-0.102,0.162-0.148,0.264   c-0.045,0.103-0.083,0.226-0.111,0.39c-0.027,0.165,0.088,0.288,0.277,0.391c0.191,0.104,0.453,0.186,0.717,0.269   c0.265,0.082,0.528,0.165,0.721,0.27c0.193,0.104,0.314,0.23,0.291,0.4c-0.023,0.172-0.055,0.301-0.089,0.408   c-0.034,0.109-0.075,0.195-0.112,0.282c-0.041,0.088-0.078,0.175-0.115,0.284c-0.035,0.109-0.066,0.242-0.092,0.42   c-0.025,0.178-0.051,0.311-0.08,0.423c-0.027,0.112-0.057,0.202-0.084,0.292c-0.029,0.092-0.059,0.182-0.086,0.296   c-0.029,0.114-0.055,0.251-0.081,0.435c-0.026,0.185-0.169,0.324-0.369,0.442c-0.2,0.117-0.458,0.213-0.718,0.308   c-0.26,0.096-0.519,0.19-0.723,0.31c-0.205,0.12-0.352,0.263-0.385,0.454c-0.032,0.192-0.083,0.338-0.141,0.459   c-0.062,0.12-0.131,0.219-0.201,0.316c-0.068,0.098-0.139,0.195-0.199,0.32c-0.063,0.123-0.113,0.272-0.148,0.471   c-0.034,0.198-0.061,0.35-0.085,0.475c-0.021,0.125-0.04,0.227-0.059,0.328c-0.02,0.102-0.039,0.203-0.063,0.332   c-0.023,0.127-0.051,0.282-0.085,0.49c-0.036,0.207,0.067,0.363,0.242,0.494c0.173,0.13,0.419,0.234,0.665,0.339   c0.246,0.105,0.492,0.21,0.671,0.341c0.178,0.133,0.286,0.295,0.254,0.51c-0.03,0.217-0.081,0.381-0.142,0.518   c-0.059,0.137-0.125,0.247-0.195,0.357c-0.068,0.111-0.137,0.223-0.197,0.361c-0.06,0.141-0.113,0.309-0.146,0.533   c-0.035,0.227-0.066,0.398-0.095,0.54c-0.029,0.144-0.058,0.259-0.084,0.374c-0.028,0.115-0.057,0.23-0.085,0.377   c-0.031,0.145-0.064,0.32-0.099,0.555c-0.036,0.236-0.015,0.413,0.036,0.561c0.051,0.148,0.133,0.268,0.213,0.389   c0.082,0.119,0.164,0.24,0.217,0.391c0.053,0.152,0.074,0.335,0.039,0.58c-0.036,0.247-0.239,0.436-0.528,0.592   c-0.29,0.158-0.665,0.285-1.04,0.412c-0.378,0.129-0.756,0.257-1.05,0.416c-0.296,0.162-0.509,0.355-0.555,0.611   c-0.048,0.258-0.006,0.453,0.082,0.615c0.087,0.162,0.22,0.293,0.35,0.424c0.133,0.133,0.266,0.264,0.355,0.43   c0.089,0.166,0.132,0.365,0.089,0.635s-0.145,0.474-0.274,0.645c-0.131,0.172-0.289,0.309-0.448,0.447   c-0.16,0.139-0.32,0.278-0.453,0.453c-0.135,0.175-0.24,0.386-0.289,0.668c-0.049,0.283,0.068,0.498,0.274,0.674   c0.206,0.18,0.496,0.321,0.785,0.465c0.292,0.144,0.587,0.287,0.796,0.469c0.211,0.182,0.336,0.401,0.291,0.699   c-0.043,0.295-0.168,0.52-0.332,0.709c-0.019,0.02-0.041,0.036-0.061,0.056c-0.109,0.114-0.233,0.219-0.361,0.317   c-0.053,0.039-0.105,0.08-0.158,0.119c-0.104,0.077-0.209,0.154-0.311,0.237c-0.008,0.007-0.016,0.017-0.024,0.024   c-0.089,0.074-0.175,0.15-0.253,0.237c-0.025,0.03-0.043,0.069-0.068,0.102c-0.039,0.054-0.08,0.107-0.113,0.168   c-0.016,0.03-0.033,0.059-0.049,0.092c-0.053,0.112-0.096,0.234-0.119,0.376c-0.051,0.313,0.02,0.549,0.154,0.746   c0.135,0.197,0.33,0.355,0.528,0.514c0.196,0.16,0.396,0.318,0.532,0.52c0.137,0.201,0.215,0.445,0.166,0.771   c-0.047,0.33-0.113,0.578-0.186,0.787c-0.072,0.209-0.156,0.377-0.238,0.546c-0.082,0.169-0.165,0.339-0.24,0.552   c-0.074,0.213-0.141,0.471-0.193,0.816c-0.053,0.345-0.111,0.605-0.175,0.824c-0.065,0.219-0.133,0.396-0.2,0.574   c-0.068,0.178-0.137,0.355-0.201,0.58c-0.066,0.225-0.129,0.496-0.186,0.859c-0.055,0.365-0.173,0.641-0.322,0.873   c-0.148,0.23-0.33,0.418-0.511,0.605c-0.184,0.189-0.365,0.378-0.518,0.615c-0.154,0.238-0.277,0.525-0.342,0.908   c-0.063,0.389-0.077,0.68-0.066,0.924c0.012,0.246,0.046,0.442,0.082,0.641c0.036,0.199,0.073,0.396,0.082,0.646   c0.013,0.252-0.002,0.554-0.068,0.961c-0.064,0.408-0.096,0.717-0.109,0.975c-0.016,0.258-0.014,0.467-0.012,0.676   c0.004,0.211,0.006,0.42-0.008,0.686c-0.016,0.266-0.051,0.588-0.117,1.018c-0.067,0.434-0.014,0.761,0.105,1.034   c0.117,0.275,0.302,0.496,0.482,0.719c0.184,0.221,0.367,0.443,0.489,0.725c0.124,0.281,0.185,0.621,0.118,1.08   c-0.064,0.459-0.375,0.808-0.809,1.1c-0.436,0.295-0.994,0.532-1.557,0.771c-0.564,0.238-1.129,0.48-1.576,0.781   c-0.449,0.303-0.778,0.667-0.863,1.154c-0.088,0.488-0.105,0.857-0.09,1.166c0.018,0.311,0.066,0.561,0.117,0.811   c0.051,0.252,0.101,0.504,0.117,0.822c0.018,0.32-0.002,0.707-0.088,1.226c-0.092,0.52,0.119,0.913,0.479,1.241   c0.365,0.33,0.879,0.593,1.396,0.858c0.518,0.267,1.039,0.534,1.412,0.872c0.375,0.338,0.6,0.75,0.525,1.303   c-0.076,0.56-0.572,1.086-1.242,1.59c-0.672,0.506-1.52,0.986-2.289,1.449c-0.773,0.467-1.471,0.914-1.826,1.352   c-0.359,0.439-0.379,0.869,0.209,1.294c0.127,0.093,0.258,0.171,0.393,0.237c0.131,0.064,0.269,0.117,0.408,0.159   c0.141,0.04,0.282,0.069,0.428,0.089c0.145,0.019,0.295,0.027,0.443,0.025c0.535-0.002,1.098-0.12,1.688-0.295   c0.59-0.176,1.203-0.406,1.838-0.639c0.635-0.23,1.291-0.459,1.965-0.631c0.676-0.174,1.372-0.289,2.09-0.293   c0.916-0.006,1.605-0.041,2.183-0.092c0.578-0.051,1.042-0.117,1.505-0.184c0.462-0.066,0.926-0.133,1.5-0.184   c0.577-0.051,1.268-0.086,2.184-0.091c0.912-0.005,1.592,0.149,2.156,0.386c0.564,0.236,1.016,0.553,1.469,0.873   c0.453,0.322,0.911,0.644,1.487,0.886c0.578,0.242,1.274,0.403,2.204,0.397c0.932-0.004,1.629-0.117,2.207-0.281   c0.576-0.164,1.033-0.383,1.492-0.598c0.456-0.217,0.908-0.433,1.48-0.595c0.57-0.161,1.258-0.271,2.18-0.276   c0.92-0.004,1.603-0.106,2.166-0.256c0.563-0.15,1.003-0.348,1.445-0.545c0.439-0.196,0.877-0.393,1.434-0.539   c0.554-0.147,1.225-0.247,2.133-0.252c0.762-0.004,1.519,0.177,2.26,0.452c0.746,0.276,1.48,0.648,2.195,1.021   c0.719,0.376,1.414,0.754,2.076,1.038c0.666,0.285,1.295,0.475,1.873,0.472c0.111-0.001,0.222-0.007,0.328-0.022   c0.107-0.017,0.213-0.041,0.316-0.073c0.102-0.032,0.204-0.073,0.303-0.122c0.098-0.051,0.193-0.11,0.287-0.18   c0.581-0.436,0.902-0.852,1.024-1.279c0.12-0.426,0.042-0.859-0.171-1.334C226.008,215.376,225.663,214.867,225.242,214.295z"/><path d="M94.699,100.335h0.041l7.838,50.404v-2.882v-18.939V95.897c0.593,1.216,1.191,2.611,1.781,4.239   c2.818,7.813,5.189,20.63,5.179,40.64c0.002,5.515-0.175,11.571-0.563,18.222c-0.258,4.411,3.109,8.195,7.521,8.452   c0.158,0.009,0.316,0.014,0.474,0.014c4.203,0.001,7.73-3.282,7.979-7.533c0.402-6.933,0.592-13.3,0.592-19.154   c-0.039-30.185-4.861-46.889-11.434-56.932c-3.285-4.987-7.129-8.185-10.68-9.955c-3.39-1.71-6.371-2.107-8.178-2.133   c-0.133-0.007-0.264-0.021-0.399-0.021h-0.15V100.335z"/><rect x="61.365" y="71.736" width="28.334" height="28.599"/><path d="M31.619,159.771c1.422-37.835,8.725-56.279,14.721-64.514c0.744-1.027,1.461-1.904,2.146-2.657v36.317v18.939v2.882   l7.838-50.404h0.041V71.736h-0.15c-0.273,0-0.541,0.016-0.807,0.043c-1.905,0.094-5.023,0.58-8.676,2.336   c-6.355,3.016-13.838,9.801-19.627,22.849c-0.161,0.362-0.321,0.731-0.48,1.103v-12.91v-1.429V66.084H45.25v-5.75h-2.068l-1.572-40   h-4.441v40h-6.361v-40h-5v40h-6.361v-40h-5v40H8.084v-40H3.642l-1.573,40H0v5.75h18.625V84.19v17.971v25.205   c-1.473,9.031-2.518,19.533-2.994,31.792c-0.102,2.632,1.087,5.009,2.994,6.541v6.835v84.801h8v-84.198v-6.256   C29.452,165.734,31.495,163.017,31.619,159.771z"/><path d="M102.578,159.719c-2.902,0.836-10.71,2.626-24.728,2.808v83.331c0,6.83,5.537,12.363,12.363,12.363   c6.828,0,12.365-5.533,12.365-12.363V159.719z"/><path d="M73.215,162.526c-14.019-0.182-21.826-1.972-24.729-2.808v86.139c0,6.83,5.537,12.363,12.363,12.363   c6.828,0,12.365-5.533,12.365-12.363V162.526z"/><path d="M51.063,44.752c-0.02-0.402-0.031-0.806-0.031-1.213c0-7.82,12.305-12.539,24.5-12.539   c12.196,0,24.501,4.719,24.501,12.539c0,0.427-0.011,0.852-0.033,1.274c9.597-2.984,15.793-7.687,15.793-12.979   c0-5.642-7.032-10.614-17.726-13.549C95.924,9.744,86.65,0,75.532,0C64.39,0,55.1,9.787,52.985,18.342   c-3.337,0.928-6.31,2.056-8.819,3.34l0.813,20.705C46.797,43.259,48.837,44.052,51.063,44.752z"/><path d="M98.031,43.539c0-12.428-45-12.428-45,0c0,12.426,10.074,22.5,22.5,22.5C87.959,66.039,98.031,55.965,98.031,43.539z"/><circle cx="62.449" cy="106.876" r="2.875"/><circle cx="88.615" cy="106.876" r="2.875"/><path d="M160.662,49.682c2.404,0,4.581-0.96,6.178-2.515c2.618,2.185,5.985,3.503,9.662,3.503c3.558,0,6.82-1.239,9.4-3.298   c2.218,2.041,5.169,3.298,8.421,3.298c6.879,0,12.456-5.576,12.456-12.454c0-6.878-5.577-12.455-12.456-12.455   c-0.858,0-1.697,0.087-2.507,0.252c1.154,2.134,1.811,4.576,1.811,7.172c0,4.277-1.788,8.131-4.647,10.876   c1.646-2.417,2.61-5.335,2.61-8.48c0-8.335-6.755-15.091-15.089-15.091c-4.059,0-7.734,1.61-10.447,4.217   c-2.042,1.962-3.525,4.492-4.209,7.337c-0.389-0.052-0.781-0.088-1.184-0.088c-4.895,0-8.862,3.969-8.862,8.863   C151.8,45.715,155.768,49.682,160.662,49.682z"/><path d="M259.838,86.323c1.881,2.174,4.652,3.556,7.752,3.556c5.664,0,10.256-4.592,10.256-10.256   c0-5.664-4.592-10.255-10.256-10.255c-0.068,0-0.135,0.009-0.203,0.01c0.067,0.645,0.105,1.298,0.105,1.961   C267.492,77.505,264.47,82.953,259.838,86.323z"/><path d="M221.445,90.469c1.908,0,3.641-0.739,4.941-1.939c1.686,0.856,3.588,1.349,5.608,1.349c2.543,0,4.906-0.768,6.875-2.079   c2.55,1.32,5.438,2.079,8.506,2.079c0.267,0,0.525-0.029,0.789-0.04c9.869-0.416,17.75-8.527,17.75-18.5   c0-9.971-7.881-18.08-17.75-18.496c-0.264-0.011-0.523-0.04-0.789-0.04c-7.266,0-13.539,4.191-16.578,10.278   c4.072,0.155,7.643,2.257,9.795,5.415c-2.232-2.143-5.258-3.467-8.598-3.467c-5.863,0-10.764,4.066-12.07,9.529   c0.491-0.104,1-0.161,1.521-0.161c4.029,0,7.297,3.267,7.297,7.296c0,0.25-0.013,0.496-0.037,0.739   c-0.371-3.682-3.48-6.556-7.26-6.556s-6.889,2.873-7.26,6.556c-0.025,0.243-0.037,0.49-0.037,0.739   C214.148,87.202,217.416,90.469,221.445,90.469z"/></g><text x="0" y="273.221" fill="#000000" font-size="5px" font-weight="bold" font-family="'Helvetica Neue', Helvetica, Arial-Unicode, Arial, Sans-serif">Created by Gan Khoon Lay</text><text x="0" y="278.221" fill="#000000" font-size="5px" font-weight="bold" font-family="'Helvetica Neue', Helvetica, Arial-Unicode, Arial, Sans-serif">from the Noun Project</text></svg>