<svg xmlns="http://www.w3.org/2000/svg" xmlns:xlink="http://www.w3.org/1999/xlink" version="1.1" x="0px" y="0px" viewBox="0 0 168.292 351.41125" enable-background="new 0 0 168.292 281.129" xml:space="preserve"><path d="M71.688,68.079c-4.747,0-6.761,2.446-8.631,11.796c-1.294,26.184,13.953,47.762,14.385,42.869  C79.457,102.175,64.782,92.823,71.688,68.079z"/><path d="M101.466,69.807c6.329,20.859-2.734,30.065-3.597,48.91c-0.286,5.899,2.159,0.722,3.741-2.875  c5.035-11.941,9.495-21.579,8.487-36.397C109.666,72.539,105.926,69.807,101.466,69.807z"/><path d="M77.153,84.19c0.72,14.099,7.769,23.883,7.769,39.561c0,4.315,6.042,3.598,5.322-0.861  C88.517,109.223,96.142,98.292,96,84.19C95.71,59.303,75.86,57.433,77.153,84.19z"/><path d="M85.345,14.565c-41.833,0-75.746,33.912-75.746,75.745c0,63.254,75.477,175.766,75.746,175.756  c0.322-0.012,75.746-113.502,75.746-175.756C161.091,48.477,127.18,14.565,85.345,14.565z M101.611,129.217  c-5.324,5.611-23.448,5.611-28.484,0.432c-5.754-3.739-10.789-16.111-13.379-23.161c-3.02-9.638-6.042-19.132-4.316-30.066  C57.878,60.885,67.085,59.158,75.14,61.46c2.013-2.013,3.884-3.021,6.762-3.021c0-4.892,2.015-13.091,10.644-10.214  c2.59,0.576,2.59,5.324,0,4.893c-3.308-0.432-3.74,2.014-3.74,4.891c3.74,1.007,5.324,1.007,8.776,4.316  c8.488-1.438,17.407,1.583,19.277,12.517C119.734,91.384,113.982,116.271,101.611,129.217z"/><text x="0" y="296.129" fill="#000000" font-size="5px" font-weight="bold" font-family="'Helvetica Neue', Helvetica, Arial-Unicode, Arial, Sans-serif">Created by corpus delicti</text><text x="0" y="301.129" fill="#000000" font-size="5px" font-weight="bold" font-family="'Helvetica Neue', Helvetica, Arial-Unicode, Arial, Sans-serif">from the Noun Project</text></svg>